<svg width="34" height="31" viewBox="0 0 34 31" fill="none" xmlns="http://www.w3.org/2000/svg">
<path d="M9.17718 23.5522C9.71211 22.8978 10.4557 22.6791 11.3559 22.6782C17.6152 22.6721 22.6844 17.5929 22.6783 11.3335C22.6721 5.0742 17.5929 0.00497265 11.3336 0.0111296C5.07422 0.0172866 0.00499123 5.0965 0.0111482 11.3558L0.0252979 25.7407C0.0276659 28.1482 1.98121 30.0979 4.38864 30.0955C6.79608 30.0931 8.74578 28.1396 8.74342 25.7322C8.7514 25.7923 8.64224 24.2066 9.17718 23.5522Z" fill="#72FFF6"/>
<path d="M20.4805 23.5529C21.0155 22.8985 21.759 22.6798 22.6592 22.6789C28.9185 22.6728 33.9878 17.5935 33.9816 11.3342C33.9754 5.07487 28.8962 0.00564404 22.6369 0.011801C16.3776 0.017958 11.3083 5.09717 11.3145 11.3565L11.3286 25.7414C11.331 28.1488 13.2846 30.0985 15.692 30.0962C18.0994 30.0938 20.0491 28.1403 20.0468 25.7328C20.0547 25.793 19.9456 24.2073 20.4805 23.5529Z" fill="#CB9EEE"/>
<path d="M9.17718 23.5522C9.71211 22.8978 10.4557 22.6791 11.3559 22.6782C17.6152 22.6721 22.6844 17.5929 22.6783 11.3335C22.6721 5.0742 17.5929 0.00497265 11.3336 0.0111296C5.07422 0.0172866 0.00499123 5.0965 0.0111482 11.3558L0.0252979 25.7407C0.0276659 28.1482 1.98121 30.0979 4.38864 30.0955C6.79608 30.0931 8.74578 28.1396 8.74342 25.7322C8.7514 25.7923 8.64224 24.2066 9.17718 23.5522Z" fill="#5CE8DF" style="mix-blend-mode:color"/>
</svg>
