<svg width="70" height="70" viewBox="0 0 70 70" fill="none" xmlns="http://www.w3.org/2000/svg">
<g clip-path="url(#clip0)">
<path fill-rule="evenodd" clip-rule="evenodd" d="M40.8634 69.1138L31.5076 68.3331C28.0076 68.2422 24.6456 66.3441 22.8384 63.0561L8.42785 36.8297C1.94646 25.0341 6.26157 10.1961 18.0596 3.71439C22.5187 1.26439 27.4153 0.355701 32.1269 0.813393L32.1235 0.810025L41.4086 1.58408C49.5259 2.04177 57.2326 6.54463 61.4326 14.1874C67.9109 25.9831 63.5965 40.821 51.8009 47.3027C51.7033 47.36 51.6023 47.4105 51.5014 47.4644H51.5047C49.7715 48.4168 49.1119 50.5672 49.9903 52.3172L50.9595 54.084C53.6687 59.0109 51.8648 65.2133 46.9345 67.9224C45.0095 68.9825 42.8893 69.3494 40.8634 69.1138ZM35.5865 17.5091C36.6197 18.2865 37.5014 19.2893 38.1644 20.4941C40.6985 25.1081 39.0124 30.9134 34.3951 33.4509L34.2706 33.508C33.2408 32.734 32.3557 31.7278 31.6961 30.5264C29.1619 25.9091 30.848 20.1038 35.462 17.5696L35.5865 17.5091Z" fill="currentColor" fill-opacity="0.54"/>
<path fill-rule="evenodd" clip-rule="evenodd" d="M37.6377 1.2627L41.4079 1.57565C49.5235 2.03334 57.2299 6.53629 61.4289 14.1791C67.9103 25.9747 63.5952 40.8127 51.7989 47.2944C51.6996 47.3482 51.6003 47.4021 51.5007 47.4559H51.501C49.7699 48.4083 49.1106 50.5554 49.9866 52.3088L50.9565 54.0722C53.6653 59.0025 51.8618 65.205 46.9315 67.9141C45.0068 68.9708 42.888 69.341 40.8604 69.1055L37.9032 68.8564L36.1737 67.3151C34.9295 66.4569 33.8668 65.3026 33.0907 63.8891L18.6818 37.666C12.2004 25.8703 16.5155 11.029 28.3118 4.54731C31.0462 3.04635 33.9442 2.12421 36.8629 1.74729L37.6377 1.2627ZM35.5855 17.5007C36.6159 18.2781 37.4993 19.281 38.1606 20.4858C40.6965 25.0997 39.0084 30.905 34.3934 33.4425L34.2689 33.4997C33.2384 32.7257 32.3547 31.7194 31.6934 30.5146C29.1576 25.9006 30.846 20.0953 35.4609 17.5612L35.5855 17.5007Z" fill="white"/>
<path fill-rule="evenodd" clip-rule="evenodd" d="M35.5868 17.5043C40.1805 15.061 45.905 16.7578 48.4185 21.3325C50.9547 25.9484 49.2661 31.753 44.651 34.2887C41.2396 36.163 37.1779 35.7299 34.2705 33.5066L34.3947 33.446C39.0098 30.9103 40.6984 25.1058 38.1622 20.4898C37.501 19.2864 36.6174 18.2821 35.5868 17.5043Z" fill="currentColor" fill-opacity="0.54"/>
<path d="M40.9443 69.11L31.5092 68.323L31.5081 68.3236C28.0065 68.2315 24.6444 66.335 22.8375 63.0463L8.42727 36.8193C1.94658 25.0243 6.26188 10.1851 18.0581 3.70375C22.5186 1.25295 27.4135 0.345277 32.1266 0.804553L32.1234 0.798648L41.5601 1.58864" stroke="#444B53" stroke-width="1.40337" stroke-miterlimit="1.5" stroke-linecap="round" stroke-linejoin="round"/>
<path d="M36.863 1.75688C33.9435 2.1322 31.0465 3.05581 28.312 4.55824C16.5158 11.0396 12.2005 25.8788 18.6812 37.6738L33.0913 63.9007C33.866 65.3106 34.9303 66.4691 36.1742 67.3255" stroke="#444B53" stroke-width="1.40337" stroke-miterlimit="1.5" stroke-linecap="round" stroke-linejoin="round"/>
<path d="M36.8659 1.7472C46.542 0.470295 56.4527 5.11616 61.4311 14.177C67.9134 25.975 63.5985 40.8141 51.8019 47.2956C51.7028 47.3501 51.6037 47.4045 51.5033 47.4558C49.7722 48.407 49.114 50.558 49.9892 52.3081L50.9599 54.0749C53.6679 59.0035 51.8646 65.2051 46.9342 67.914C43.4166 69.8467 39.2511 69.482 36.1771 67.3157" stroke="#444B53" stroke-width="1.40337" stroke-miterlimit="1.5" stroke-linecap="round" stroke-linejoin="round"/>
<path fill-rule="evenodd" clip-rule="evenodd" d="M35.5868 17.5043C40.1805 15.061 45.905 16.7578 48.4185 21.3325C50.9547 25.9484 49.2661 31.753 44.651 34.2887C41.2396 36.163 37.1779 35.7299 34.2705 33.5066L34.3947 33.446C39.0098 30.9103 40.6984 25.1058 38.1622 20.4898C37.501 19.2864 36.6174 18.2821 35.5868 17.5043Z" stroke="#444B53" stroke-width="1.40337" stroke-miterlimit="1.5" stroke-linecap="round" stroke-linejoin="round"/>
<path fill-rule="evenodd" clip-rule="evenodd" d="M35.5865 17.509C36.6171 18.2868 37.5007 19.2911 38.1619 20.4945C40.6981 25.1105 39.0095 30.915 34.3944 33.4507L34.2702 33.5113C33.241 32.7366 32.3557 31.7292 31.6945 30.5258C29.16 25.9128 30.847 20.1054 35.462 17.5697L35.5865 17.509Z" stroke="#444B53" stroke-width="1.40337" stroke-miterlimit="1.5" stroke-linecap="round" stroke-linejoin="round"/>
</g>
<defs>
<clipPath id="clip0">
<rect width="70" height="70" fill="white"/>
</clipPath>
</defs>
</svg>
