<svg fill="none" height="17" viewBox="0 0 14 17" width="14" xmlns="http://www.w3.org/2000/svg"><g fill="currentColor"><path d="m11.0135 3.77393-.84 11.52107h-6.15782l-.83977-11.52107-1.06409.11227.8551 11.73c.04501.5406.43473.9645.88748.9645h6.4804c.4526 0 .8425-.4236.8882-.9722l.8546-11.7223z"/><path d="m9.053.723145h-3.91673c-.49085 0-.89018.480665-.89018 1.071495v2.03583h1.06819v-1.82156h3.56066v1.82153h1.06818v-2.03583c.00006-.5908-.39927-1.071465-.89012-1.071465z"/><path d="m12.7915 3.1875h-11.39411c-.29501 0-.534109.2878-.534109.6429s.239099.6429.534109.6429h11.39411c.2951 0 .5341-.2878.5341-.6429s-.2391-.6429-.5341-.6429z"/></g></svg>