<svg fill="none" height="15" viewBox="0 0 15 15" width="15" xmlns="http://www.w3.org/2000/svg"><path d="m13.727.673951c-.8987-.898601-2.3557-.898601-3.2544 0l-9.123 9.122229c-.06252.06251-.10766.14001-.13123.22512l-1.1997099 4.3308c-.0493385.1776.000799.3677.1310369.4981.130437.1303.320601.1804.498179.1313l4.331204-1.1998c.0851-.0236.1626-.0687.22512-.1313l9.1228-9.12239c.8973-.8992.8973-2.35486 0-3.25406zm-11.26319 9.454549 7.46651-7.466 2.40798 2.40778-7.46668 7.46602zm-.481.9651 1.92381 1.9239-2.66109.7372zm11.62109-7.28863-.5423.54228-2.4082-2.40799.5425-.54227c.4992-.499138 1.3086-.499138 1.8078 0l.6002.6c.4984.49973.4984 1.30845 0 1.80798z" fill="currentColor"/></svg>