<svg width="29" height="29" viewBox="0 0 29 29" fill="none" xmlns="http://www.w3.org/2000/svg">
<g clip-path="url(#clip0)">
<path d="M16.3125 25.3747H11.4792C11.1457 25.3747 10.875 25.104 10.875 24.7705C10.875 24.437 11.1457 24.1663 11.4792 24.1663H16.3125C17.3118 24.1663 18.125 23.3531 18.125 22.3538V16.3122C18.125 15.9787 18.3957 15.708 18.7292 15.708C19.0627 15.708 19.3333 15.9787 19.3333 16.3122V22.3538C19.3333 24.0189 17.9788 25.3747 16.3125 25.3747Z" fill="currentColor"/>
<path d="M28.396 13.2913H16.3127C15.9792 13.2913 15.7086 13.0207 15.7086 12.6872C15.7086 12.3537 15.9792 12.083 16.3127 12.083H28.396C28.7295 12.083 29.0002 12.3537 29.0002 12.6872C29.0002 13.0207 28.7295 13.2913 28.396 13.2913Z" fill="currentColor"/>
<path d="M9.66667 29C9.40083 29 9.14104 28.9553 8.89575 28.8683L1.65783 26.4552C0.667 26.1254 0 25.2046 0 24.1667V2.41667C0 1.08387 1.08387 0 2.41667 0C2.68492 0 2.94592 0.0447083 3.18879 0.132917L10.4255 2.54475C11.4163 2.87342 12.0833 3.79417 12.0833 4.83333V26.5833C12.0833 27.9161 10.9995 29 9.66667 29ZM2.41667 1.20833C1.74967 1.20833 1.20833 1.75088 1.20833 2.41667V24.1667C1.20833 24.6838 1.54183 25.143 2.03967 25.3097L9.28967 27.7264C10.0823 28.008 10.875 27.3736 10.875 26.5833V4.83333C10.875 4.31496 10.5415 3.85579 10.0437 3.69146L2.79367 1.27479C2.66921 1.23008 2.54233 1.20833 2.41667 1.20833Z" fill="currentColor"/>
<path d="M18.7292 9.66667C18.3957 9.66667 18.125 9.396 18.125 9.0625V3.02083C18.125 2.02154 17.3118 1.20833 16.3125 1.20833H2.41667C2.08317 1.20833 1.8125 0.937667 1.8125 0.604167C1.8125 0.270667 2.08317 0 2.41667 0H16.3125C17.9788 0 19.3333 1.35575 19.3333 3.02083V9.0625C19.3333 9.396 19.0627 9.66667 18.7292 9.66667Z" fill="currentColor"/>
<path d="M23.5626 18.1253C23.4079 18.1253 23.2533 18.0661 23.1348 17.9489C22.8992 17.7133 22.8992 17.3302 23.1348 17.0946L27.5404 12.689L23.1348 8.28345C22.8992 8.04783 22.8992 7.66479 23.1348 7.42916C23.3705 7.19354 23.7535 7.19354 23.9891 7.42916L28.8225 12.2625C29.0581 12.4981 29.0581 12.8812 28.8225 13.1168L23.9891 17.9501C23.8719 18.0661 23.7173 18.1253 23.5626 18.1253Z" fill="currentColor"/>
</g>
<defs>
<clipPath id="clip0">
<rect width="29" height="29" fill="white"/>
</clipPath>
</defs>
</svg>
