<svg clip-rule="evenodd" fill-rule="evenodd" stroke-linecap="round" stroke-linejoin="round" stroke-miterlimit="1.5" viewBox="0 0 180 208" xmlns="http://www.w3.org/2000/svg"><g transform="translate(-151.063 -2706.821)"><path d="m249.695 2911.46-19.008-1.59h-.005c-10.4-.26-20.392-5.9-25.763-15.68l-42.815-77.92c-19.259-35.05-6.437-79.15 28.615-98.41 13.254-7.28 27.8-9.97 41.804-8.61l-.008-.02 16.391 1.37-2.302 1.44c-8.673 1.12-17.284 3.86-25.409 8.33-35.052 19.26-47.874 63.35-28.615 98.4l42.815 77.93c2.306 4.19 5.464 7.63 9.162 10.18zm-6.849-152.62c13.647-7.27 30.661-2.22 38.129 11.37 7.535 13.71 2.519 30.96-11.195 38.5-10.136 5.57-22.206 4.28-30.845-2.33l.37-.18c13.713-7.53 18.729-24.78 11.194-38.49-1.965-3.58-4.591-6.57-7.653-8.87z" fill="var(--theme-color-lighter)" stroke="var(--theme-color-lighter)" stroke-width="4.17"/><path d="m222.907 2706.86c3.298-.12 9.849.29 9.849.29l27.537 2.3c.32.01.64.03.962.06l.191.01.145.01.145.01.213.02c.341.03.682.05 1.023.09l.212.02.118.01h.02.022l.13.01.168.02.035.01c.337.03.673.07 1.01.11l.231.02.095.01.021.01h.03l.142.02.139.01.031.01h.023l.095.01.204.03h.027c.225.03.45.06.674.09l.246.04.076.01h.02l.035.01.156.02.116.02h.033l.031.01.107.01.168.03h.034l.017.01c.33.05.658.1.988.16h.015.034l.176.03.097.02.032.01h.037l.12.02.142.03h.039l.025.01.079.01.213.04.029.01c.219.04.438.08.66.12l.238.05.082.01.027.01.04.01.136.02.122.03.039.01h.031l.092.02.178.04h.036l.014.01c.219.04.437.09.657.14l.249.05.068.01.02.01.04.01.155.03.105.02.036.01.035.01.107.02.153.04.04.01h.021l.068.02.247.06c.218.05.437.1.654.15l.013.01h.033l.18.05.091.02.03.01.037.01.123.03.135.03.038.01.025.01.083.02.2.05.033.01c.216.06.433.11.651.17l.237.07.077.02h.023l.036.01.143.04.118.04.034.01h.029l.098.03.173.05.031.01h.013c.322.09.643.19.962.28l.014.01.03.01.168.05.103.03h.028l.03.02.116.03.152.05.031.01h.017c.321.1.642.2.96.31l.221.07.09.03h.021l.029.01.135.05.134.04.028.01.021.01.092.03.199.07h.019c.32.11.64.22.956.33l.195.07.118.05h.024l.022.01.108.04.174.06.028.01c.317.12.634.24.952.36l.204.08.105.04.166.06.153.06.031.01c.419.17.836.33 1.253.51l.177.07.135.06.133.05.202.09c.316.13.63.26.942.4l.188.08.118.06.147.06.173.08.012.01c.414.18.826.37 1.237.57l.159.07.152.07.016.01c.411.2.82.4 1.227.6l.17.09.133.06.017.01c.507.26 1.012.52 1.514.79l.141.08.17.09c.403.22.804.44 1.203.67l.154.09.15.08h.004c.398.23.795.46 1.189.7l.166.1.125.07.011.01c.49.3.978.6 1.46.91l.139.08.159.11c.387.24.771.5 1.155.75l.152.1.133.09.01.01c.475.32.947.65 1.415.98l.014.01c.467.33.931.67 1.391 1.02l.14.1.138.1.012.01c.367.28.733.56 1.095.84l.152.12.116.1.02.01c.36.29.719.57 1.075.87l.163.13.097.08.129.11.141.12.016.01c.351.3.701.6 1.047.9l.142.12.118.1.025.03c.344.3.686.6 1.025.91l.153.14.098.09.017.02.016.02.087.07.141.14.02.02c.253.23.504.47.754.71l.162.15.081.08.017.02.02.02.096.09.116.11.021.02.012.01.063.07.176.17c.167.16.332.33.497.49l.17.18.065.06.017.02.023.02.104.11.096.1.024.02.018.02.07.07.14.15.025.02c.239.25.476.5.712.75l.013.01.026.03.113.12.079.09.024.02.024.03.077.08.114.12.026.03.014.02.049.05.177.19c.156.17.312.35.466.52l.01.01.027.03.123.14.064.07.023.03.028.03.084.09.093.11.03.03.02.03.055.06.136.15.03.04c.152.17.302.35.451.52l.167.2.05.06.021.02.032.04.091.11.076.09.031.04.025.03.061.07.109.13.033.04.014.02c.146.17.291.35.436.53l.172.21.039.05.018.02.035.05.097.12.062.07.029.04.031.04.066.08.09.12.036.04.02.03.042.05.133.17.026.03.007.01c.141.18.28.36.419.55l.014.01.036.05.105.14.05.06.027.04.035.05.071.09.074.1.036.05.026.03.047.06.105.15.038.05.013.01c.135.19.27.37.404.55l.01.02.035.04.115.16.038.06.023.03.039.05.078.11.059.08.035.05.031.05.052.07.085.12.041.06.019.02.031.05.13.19.028.03.005.01c.066.1.131.19.197.28l.005.01.027.04.131.19.028.04.019.03.042.06.083.12.048.07.032.05.035.05.057.09.07.1.04.06.024.04.036.05.102.16.04.05.011.02c.063.1.126.19.189.29l.165.25.02.03.015.02.042.07.09.14.038.06.027.04.039.06.062.1.058.09.038.06.028.04.041.07.083.13.043.07.016.02.022.04.134.21.025.04c.06.1.12.2.18.29l.009.02.04.06.099.17.03.05.023.03.041.07.067.11.048.08.034.06.032.05.045.08.069.11.042.07.021.04.027.04.101.17.038.07.008.01c.058.1.116.2.173.3l.005.01.03.05.115.2.022.03.018.04.042.07.073.13.039.07.029.05.035.06.051.09.057.1.039.07.024.04.032.06.083.15.041.07.013.02.015.03.151.27c9.667 17.6 11.477 37.41 6.609 55.38-.086.31-.175.63-.265.95-.453 1.59-.959 3.17-1.517 4.72l-.121.34-.105.29c-.892 2.42-1.91 4.8-3.05 7.12 0 0-.034.07-.034.07-.12.25-.242.49-.366.74-.156.31-.314.61-.474.92l-.144.27-.148.28c-.091.17-.183.34-.277.52-.105.19-.212.39-.321.58-.135.24-.272.49-.409.73-.42.73-.853 1.46-1.299 2.19l-.237.38-.178.28c-.492.78-1 1.56-1.521 2.32-.104.15-.209.3-.314.45l-.232.33-.246.35c-.53.74-1.074 1.48-1.632 2.21l-.278.36c-.7.89-1.421 1.78-2.165 2.65l-.14.16-.234.27c-1.218 1.4-2.493 2.76-3.823 4.07l-.02.02-.309.31-.331.32-.332.32-.113.1c-.319.3-.641.6-.965.9l-.275.25-.344.31-.071.06c-.474.43-.955.84-1.441 1.26l-.24.2-.202.17c-.489.4-.985.81-1.488 1.21l-.117.09-.368.29-.37.28c-.19.15-.381.29-.573.43l-.174.14-.238.17c-.423.32-.851.63-1.282.93l-.192.14c-2.245 1.58-4.605 3.05-7.071 4.41-.298.16-.597.32-.896.48h.011c-.948.52-1.763 1.19-2.43 1.96l-.051.06-.005.01c-.132.16-.259.32-.38.48l-.003.01c-.175.24-.338.49-.487.74-.073.13-.144.25-.211.38l-.01.02c-.077.15-.149.3-.217.45l-.007.02c-1.035 2.32-1.059 5.06.144 7.49 0 0 2.861 5.21 2.861 5.21 4.1 7.46 4.945 15.84 3.012 23.5-.024.1-.048.19-.074.29-.214.82-.461 1.63-.739 2.43-.179.51-.37 1.02-.573 1.52-.193.48-.396.95-.611 1.42-.046.1-.093.2-.14.3-.233.49-.478.97-.735 1.45l-.093.18c-.031.05-.062.11-.094.17l-.094.17-.096.17c-.032.05-.065.11-.097.17l-.024.04c-.14.24-.284.48-.431.72l-.045.08-.103.16-.104.17-.055.08c-.208.33-.423.65-.644.97l-.059.09-.039.06c-.121.17-.243.34-.367.51l-.05.07-.043.06c-.307.42-.625.83-.954 1.23l-.088.11-.072.09c-.638.77-1.315 1.52-2.029 2.23l-.028.03-.049.05c-.346.35-.7.68-1.063 1.01l-.048.05c-.049.04-.099.09-.149.13l-.15.14-.116.1c-.856.74-1.758 1.45-2.705 2.12l-.046.03-.169.12-.169.11-.095.07c-.177.12-.356.24-.537.35-.198.13-.398.26-.6.38l-.155.1-.177.1c-.226.14-.453.27-.682.4l-.038.02-.015.01c-.116.07-.232.13-.35.2l-.143.08-.102.05-.025.01c-.078.05-.156.09-.234.13l-.021.01-.015.01c-.077.04-.153.08-.229.12l-.02.01-.02.01c-.076.04-.152.07-.229.11l-.015.01-.023.01c-.078.04-.156.08-.234.12l-.131.06-.137.07h-.008c-.081.04-.161.08-.243.12l-.022.01h-.01c-.077.04-.154.08-.231.11l-.026.01-.018.01c-.075.04-.15.07-.226.1l-.023.01-.025.01c-.075.04-.15.07-.226.1l-.018.01-.028.01c-.076.04-.153.07-.23.1l-.011.01-.025.01-.101.04-.124.05-.029.02-.142.06-.088.03-.03.01-.016.01c-.074.03-.148.06-.223.09l-.032.01-.024.01c-.073.03-.145.06-.218.09l-.029.01-.031.01c-.073.03-.145.05-.218.08l-.022.01-.037.01c-.073.03-.147.06-.221.09h-.015l-.036.01-.094.04-.109.04-.033.01-.024.01-.132.04-.076.03-.041.01-.022.01c-.071.03-.141.05-.212.07l-.04.02-.031.01c-.07.02-.139.04-.208.06l-.035.02-.04.01c-.069.02-.137.04-.206.07h-.028l-.047.02-.062.02-.136.04-.03.01-.049.01-.085.03-.092.03-.049.01-.041.01-.119.04-.064.01-.052.02-.029.01c-.066.02-.132.04-.198.05l-.049.02-.039.01c-.065.02-.13.03-.195.05l-.042.01-.049.02c-.065.01-.129.03-.195.05h-.033l-.057.02-.055.01-.112.03-.053.01-.062.02-.075.02-.077.02-.063.01-.059.02-.104.02-.053.01-.061.01-.036.01c-.062.02-.124.03-.187.05l-.055.01-.047.01c-.061.01-.123.02-.184.04l-.047.01-.057.01h-.032l-.151.04h-.038l-.067.02-.048.01-.092.01-.072.02-.073.01-.067.01-.064.02-.074.01-.075.01-.092.02-.043.01-.069.01-.046.01-.147.02-.026.01-.06.01h-.053c-.058.01-.117.02-.176.03l-.05.01-.064.01h-.028l-.121.02-.067.01-.074.01-.043.01h-.033l-.129.02-.114.02h-.03-.028l-.108.02-.137.01-.032.01h-.022l-.088.01-.167.02h-.028l-.014.01-.071.01-.207.02h-.018c-.505.05-1.011.09-1.516.12l-.217.01h-.08-.017-.031l-.152.01-.098.01h-.024-.032-.126-.117-.031l-.027.01h-.104-.141-.033-.021-.085l-.169.01h-.03-.014-.066-.21-.02c-.403 0-.806-.01-1.209-.03l-.234-.01h-.06-.015l-.037-.01h-.166l-.076-.01h-.024-.042l-.136-.01-.092-.01h-.034-.04l-.112-.01-.11-.01h-.041-.035l-.091-.01-.131-.01-.045-.01h-.028l-.073-.01-.155-.01h-.047l-.019-.01h-.056l-.189-.02-.038-.01h-.01-.039l-.252-.03-27.266-2.28s-.659-.04-.659-.04c-11.016-.38-21.566-6.39-27.258-16.75 0 0-42.815-77.92-42.815-77.92-10.739-19.55-11.782-41.83-4.742-61.29l.036-.1.057-.16c.778-2.12 1.652-4.21 2.62-6.26l.088-.19.07-.14c.69-1.45 1.426-2.87 2.209-4.26.235-.42.474-.84.718-1.26.534-.91 1.087-1.81 1.661-2.7 1.18-1.83 2.443-3.62 3.788-5.35l.054-.06.041-.06c3.955-5.06 8.609-9.67 13.917-13.65l.137-.11.376-.28.19-.13.096-.08c.253-.18.508-.36.764-.55.629-.44 1.268-.88 1.915-1.31 1.124-.75 2.272-1.47 3.446-2.16.349-.21.7-.41 1.055-.61.208-.12.42-.24.634-.36l.096-.05.211-.12c1.129-.62 2.267-1.21 3.412-1.76l.132-.06.003-.01c.63-.3 1.263-.6 1.899-.88l.053-.03.072-.03c.388-.17.776-.34 1.167-.51.156-.06.313-.13.469-.19.493-.21.987-.41 1.482-.6l.1-.04.331-.13c.11-.04.221-.09.331-.13l.332-.12.015-.01c6.732-2.52 13.666-4.01 20.598-4.51l.025-.01.131-.01c.412-.02.824-.05 1.235-.07l.342-.02c.113-.01.227-.01.341-.02h.209c.158-.01.316-.02.474-.02zm14.441 4.85-4.781-.4s-.14 0-.207 0c-2.763-.27-5.547-.38-8.338-.32l-.322.01c-6.435.17-12.903 1.23-19.222 3.23h-.021l-.084.03c-4.294 1.36-8.517 3.16-12.612 5.41-4.511 2.48-8.643 5.38-12.374 8.63-.12.11-.239.21-.355.32-.746.65-1.475 1.33-2.186 2.01l-.056.05-.045.05c-1.623 1.56-3.159 3.2-4.609 4.9l-.079.09-.073.09c-6.411 7.56-11.086 16.34-13.834 25.67l-.067.23-.116.41-.027.09c-.128.45-.251.91-.37 1.36-.094.36-.184.72-.273 1.08l-.079.32-.098.42c-.096.41-.189.82-.277 1.24l-.087.41-.045.21c-3.241 15.79-1.108 32.78 7.257 48 0 0 42.815 77.92 42.815 77.92 2.58 4.7 6.303 8.37 10.634 10.86l.195.11.04.02c4.007 2.25 8.522 3.5 13.122 3.62h.124l12.797 1.07-.389-.35-.039-.03-.039-.02-.052-.04-.053-.04-.04-.02-.039-.03-.051-.04-.052-.04-.041-.02-.04-.03-.049-.04-.051-.04-.041-.03-.041-.03-.049-.03-.05-.04-.041-.03-.042-.03-.047-.04-.049-.03-.042-.03-.042-.04-.047-.03-.048-.04-.043-.03-.042-.03-.046-.04-.046-.03-.044-.04-.043-.03-.045-.04-.045-.03-.044-.04-.044-.03-.044-.03-.044-.04-.045-.04-.044-.03-.043-.03-.043-.04-.046-.04-.044-.03-.042-.04-.042-.03-.046-.04-.046-.04-.04-.03-.042-.03-.046-.04-.046-.04-.039-.04-.041-.03-.047-.04-.046-.04-.039-.03-.039-.03-.048-.04-.047-.04-.037-.04-.039-.03-.048-.04-.047-.04-.037-.04-.037-.03-.049-.04-.048-.04-.035-.04-.037-.03-.049-.04-.048-.05-.035-.03-.035-.03-.05-.04-.049-.05-.034-.03-.034-.03-.05-.05-.049-.04-.033-.03-.034-.04-.05-.04-.05-.05-.032-.03-.032-.03-.051-.05-.05-.05-.031-.03-.032-.03-.051-.05-.051-.04-.03-.03-.031-.03-.052-.05-.05-.05-.03-.03-.029-.03-.053-.05-.051-.06-.028-.02-.029-.03-.053-.05-.051-.06-.028-.03-.028-.02-.053-.06-.052-.05-.026-.03-.027-.02-.054-.06-.052-.05-.026-.03-.026-.03-.054-.06-.052-.05-.025-.03-.025-.02-.055-.06-.053-.06-.023-.02-.025-.03-.055-.06-.053-.06-.023-.02-.023-.03-.055-.06-.054-.06-.022-.02-.023-.03-.055-.06-.054-.06-.021-.02-.022-.03-.056-.06-.054-.06-.02-.02-.021-.03-.056-.06-.055-.06-.019-.03-.02-.02-.057-.07-.054-.06-.019-.02-.019-.03-.057-.06-.055-.07-.018-.02-.018-.02-.057-.07-.055-.07-.017-.02-.018-.02-.057-.07-.055-.06-.017-.02-.017-.02-.057-.08-.056-.06-.015-.02-.016-.02-.058-.08-.056-.07-.014-.01-.016-.02-.058-.08-.055-.07-.014-.02-.015-.01-.058-.08-.056-.07-.013-.02-.014-.02-.059-.08-.055-.07-.013-.01-.013-.02-.059-.08-.056-.07-.012-.02-.012-.02-.059-.08-.056-.07-.011-.02-.011-.01-.06-.09-.056-.07-.021-.03-.059-.08-.057-.08-.019-.03-.06-.08-.056-.08-.018-.03-.06-.09-.056-.08-.017-.02-.06-.09-.056-.08-.016-.02-.06-.09-.056-.09-.014-.02-.061-.09-.056-.08-.013-.02-.06-.09-.056-.09-.012-.02-.061-.09-.055-.09-.01-.02-.062-.09-.055-.09-.009-.01-.062-.1-.054-.09-.008-.01-.063-.11-.053-.08-.007-.02-.063-.1-.053-.09-.006-.01-.064-.11-.052-.08-.004-.01-.067-.11-.049-.09-.004-.01-.069-.12-.048-.08-.116-.21c-.039-.07-.078-.13-.116-.21 0 0-42.815-77.92-42.815-77.92-10.901-19.84-11.812-42.5-4.418-62.16l.023-.07.048-.12c1.275-3.37 2.794-6.64 4.546-9.8.129-.23.258-.46.389-.69 1.123-1.98 2.337-3.9 3.642-5.77 6.345-9.1 14.829-16.92 25.207-22.62.114-.07.228-.13.343-.19l.043-.02.044-.03.089-.05.24-.12.016-.01c.114-.06.229-.12.343-.19l.041-.02.046-.02.095-.05.224-.12.028-.01c.115-.06.229-.12.344-.18l.039-.02.048-.03.101-.05.21-.1.039-.02c.114-.06.228-.12.343-.18l.038-.01.049-.03.107-.05.198-.1.036-.02h.011c.115-.06.229-.11.344-.17l.036-.02.05-.02.114-.06.187-.09.041-.02h.014c.114-.06.229-.11.344-.16l.034-.02.05-.02.122-.06.176-.08.044-.02.017-.01c.115-.05.23-.11.346-.16l.031-.01.051-.03.129-.06.167-.07.047-.02.019-.01c.116-.05.231-.1.346-.16l.029-.01.052-.02.136-.06.158-.07.049-.02.023-.01c.115-.05.23-.1.346-.15l.027-.01.052-.02.143-.06.15-.07.051-.02.025-.01c.116-.05.232-.1.347-.14l.025-.02.051-.02.152-.06.142-.06.052-.02.028-.01c.116-.05.232-.09.347-.14l.023-.01.051-.02.16-.06.134-.06.053-.02.031-.01c.116-.04.232-.09.348-.13l.02-.01.051-.02.168-.07.126-.05.054-.02.035-.01c.115-.04.231-.09.347-.13l.018-.01.05-.02.177-.06.118-.04.055-.02.038-.02c.115-.04.231-.08.346-.13h.017l.049-.02.185-.06.11-.04.057-.02.042-.02.345-.12.015-.01.049-.01.193-.07.102-.03.058-.02.045-.02c.115-.04.229-.08.344-.12h.013l.05-.02.2-.06.094-.03.059-.02.05-.02c.114-.04.227-.07.341-.11l.012-.01.051-.01.207-.07.085-.02.061-.02.056-.02.07-.02.242-.08.036-.01.053-.02.213-.06.075-.03.063-.01.063-.02.071-.02.211-.07.06-.02.058-.01.216-.07.066-.01.065-.02.07-.02.072-.03.183-.05.08-.02.067-.02.215-.06.056-.02.068-.02.079-.02.07-.02.158-.04.099-.03.081-.02.209-.06.045-.01.072-.02.089-.02.068-.02.133-.03.116-.03zm22.645 1.89c-4.338-.24-8.716-.08-13.078.5h-.006c-8.422 1.08-16.783 3.74-24.672 8.08-4.644 2.55-8.886 5.55-12.701 8.91l-.028.03-.071.06c-4.549 4.03-8.49 8.58-11.784 13.5l-.021.04c-1.181 1.77-2.278 3.58-3.29 5.44l-.201.38c-.067.12-.133.25-.2.37l-.196.38s-.04.07-.04.07c-1.266 2.44-2.387 4.95-3.359 7.51l-.051.14-.148.39-.145.4-.008.02c-.193.53-.381 1.07-.562 1.61l-.122.36-.028.09c-.287.87-.558 1.76-.811 2.64-4.923 17.22-3.323 36.31 5.973 53.23 0 0 42.815 77.93 42.815 77.93 2.145 3.9 5.08 7.1 8.518 9.46l.034.03-.016-.01c3.846 2.71 8.307 4.4 12.94 4.95l.2.01c.072.01.143.02.213.03l.055.01h.054l.185.02h.063l.184.02.063.01.187.01h.059l.192.02h.052l.199.01.042.01.21.01h.025c.802.04 1.608.04 2.414.01h.001c.81-.04 1.622-.1 2.433-.2l.005-.01.233-.03h.016l.228-.03h.018l.229-.04h.012c.56-.09 1.12-.19 1.678-.31l.017-.01.208-.04.044-.01.194-.05.057-.01.187-.05.063-.01.183-.05.066-.01.181-.05.065-.02.184-.05.056-.01.193-.06.028-.01.215-.06c.08-.02.16-.05.24-.07l.24-.07.175-.06.076-.02.157-.06.093-.03.148-.05.102-.03.143-.05.107-.04.139-.05.111-.04.135-.05.114-.04.132-.05.118-.05.129-.05.122-.05.124-.05.136-.05.11-.05.239-.1.1-.04.146-.06.108-.05.137-.06.111-.05.135-.07.11-.05.135-.06.11-.05.135-.07.109-.05.136-.07.106-.05.139-.07.103-.05.145-.08.096-.05.161-.08.08-.04.24-.13c1.028-.57 2.008-1.19 2.935-1.86l.102-.07c.048-.04.095-.07.143-.11l.111-.08c.19-.14.378-.29.564-.43.915-.72 1.776-1.49 2.582-2.3l.056-.06.054-.05c.136-.14.27-.28.402-.42.345-.36.678-.74 1.002-1.12.074-.09.147-.18.22-.27l.055-.06c.036-.04.072-.09.109-.13l.107-.14.107-.13c.162-.21.321-.42.478-.63 6.392-8.58 7.597-20.46 2.109-30.44l-2.882-5.25c-.013-.02-.025-.05-.037-.07-1.414-2.83-1.698-5.94-1.008-8.82l.01-.04.032-.13c.026-.1.054-.21.082-.31l.042-.14c.014-.05.029-.1.043-.15l.045-.14.04-.13c.04-.12.082-.24.126-.36l.031-.09.011-.03c.788-2.11 2.126-4.03 3.946-5.51l.122-.1c.041-.03.083-.06.124-.1l.126-.09.127-.1c.202-.15.411-.29.624-.43.104-.07.21-.14.317-.2l.125-.07.139-.09.141-.08h.004c.044-.03.089-.05.136-.08.287-.15.574-.31.86-.46l.398-.22.098-.06c1.42-.79 2.803-1.63 4.148-2.51l.374-.25.372-.24c1.113-.75 2.199-1.53 3.256-2.33l.352-.26c.116-.09.233-.18.349-.27l.348-.27.345-.28.076-.06c.548-.44 1.089-.88 1.62-1.33l.333-.29.108-.09c.406-.35.807-.71 1.204-1.07 1.077-.97 2.119-1.98 3.128-3.01.68-.7 1.344-1.41 1.99-2.13.128-.14.255-.29.384-.43.503-.57.997-1.15 1.479-1.74l.167-.2.234-.29c.276-.34.549-.68.82-1.03.119-.15.237-.3.354-.45l.185-.25.044-.06c.657-.86 1.293-1.74 1.907-2.64l.049-.07.24-.35c1.143-1.69 2.21-3.43 3.197-5.2.113-.2.225-.41.336-.61l.201-.37.199-.38c.066-.12.132-.25.197-.37l.125-.24c.451-.88.884-1.76 1.297-2.65l.07-.15.121-.27c.769-1.68 1.47-3.39 2.103-5.13l.027-.07.143-.4.141-.4.044-.13c6.321-18.17 5.216-38.85-4.771-57.03 0 0-.157-.28-.157-.28l-.051-.09-.108-.2-.059-.1-.102-.18-.061-.11-.106-.19-.056-.1-.128-.21-.035-.07-.162-.27-.046-.08-.119-.2-.061-.11-.106-.17-.064-.11-.106-.17-.063-.11-.116-.19-.052-.08-.168-.27-.032-.06-.138-.22-.062-.1-.11-.17-.068-.11-.106-.16-.069-.11-.111-.17-.064-.1-.141-.22-.033-.05-.173-.26-.063-.09-.114-.18-.073-.1-.106-.16-.075-.11-.107-.16-.074-.11-.118-.17-.062-.09-.176-.25-.063-.09-.118-.17-.079-.11-.105-.15-.083-.12-.102-.14-.084-.12-.106-.14-.079-.11-.141-.2-.04-.05-.06-.08-.124-.17-.086-.12-.102-.13-.091-.12-.098-.13-.093-.13-.098-.13-.093-.12-.103-.13-.087-.11-.047-.06-.133-.18-.098-.12-.094-.12-.102-.13-.091-.12-.105-.13-.089-.11-.106-.13-.087-.11-.11-.13-.059-.07-.123-.16-.115-.14-.077-.09-.117-.14-.081-.1-.117-.14-.08-.09-.119-.14-.075-.09-.126-.15-.048-.06-.142-.16-.162-.19-.025-.03-.137-.16-.064-.07-.133-.15-.068-.08-.134-.15-.063-.07-.142-.16-.039-.04-.157-.17c-.063-.07-.127-.15-.19-.21l-.164-.18-.033-.04-.154-.17-.051-.05-.151-.16-.05-.06-.157-.16-.03-.04c-.245-.26-.492-.51-.739-.77l-.026-.02-.172-.18-.032-.03-.175-.18-.019-.02c-.323-.33-.649-.65-.978-.97l-.011-.01-.195-.19h-.004c-12.088-11.65-27.888-18.46-44.313-19.54-.082.01-.166 0-.25 0zm-14.035 191.68.009.01zm-.038-.03.014.01zm-.034-.03.013.02zm-.012 0h.003zm-.049-.04.03.02-.025-.02zm-4.427-147.95c.025-.01.177-.09.177-.09l.33-.16c11.155-5.92 24.396-4.19 33.614 3.42l.134.11.141.12.141.12.139.12.139.12.139.12.137.13.137.12.137.12.136.13.135.13.134.12.134.13.132.13.133.13.131.13.131.14.13.13.129.13.129.14.128.13.127.14.127.14.125.14.125.14.124.14.124.14.122.14.122.14.121.15.12.14.12.15.119.14.117.15.117.15.117.15.115.15.115.15.114.15.113.15.112.16.111.15.112.16.11.16.109.15.107.16.107.16.106.16.105.16.105.16.103.16.103.16.101.17.101.16.1.17.099.16.098.17.097.17.096.17.096.17.094.17c.194.35.38.71.559 1.06l.074.15.036.07c.201.42.393.83.575 1.25l.04.09.013.03c.098.23.193.46.286.69l.068.17c.023.06.046.12.07.18l.017.04c.287.75.542 1.5.767 2.25l.014.05.054.18c.549 1.9.905 3.83 1.074 5.76l.009.11.015.18.013.17c.19 2.65.031 5.3-.458 7.88-.019.1-.038.19-.057.29l-.014.07-.036.17-.038.18-.039.18c-.013.06-.027.12-.04.18l-.034.15c-.067.29-.138.58-.214.86-.132.5-.276 1-.434 1.5-.083.26-.169.52-.259.77-.127.37-.262.73-.404 1.1l-.061.15c-.022.06-.045.11-.068.17l-.069.17-.07.17-.036.08c-.043.11-.087.21-.131.31l-.049.11-.074.17-.017.04c-.207.46-.426.92-.656 1.37l-.039.07-.084.17-.086.16c-.028.05-.057.11-.086.16l-.087.16-.088.16-.073.13c-.07.13-.141.26-.214.38l-.075.13-.042.07c-.216.37-.44.73-.671 1.09l-.059.1-.055.08c-.057.09-.115.17-.173.26l-.077.12-.058.08c-.101.15-.204.3-.309.44-.186.27-.376.53-.571.79-.429.56-.879 1.12-1.35 1.65l-.092.11c-.042.05-.083.09-.124.14l-.125.14-.125.13-.127.14-.063.07c-.23.25-.465.49-.704.73l-.016.01-.128.13-.067.07c-.07.07-.141.14-.212.2l-.126.12c-.046.05-.091.09-.137.13l-.1.1c-.109.1-.219.2-.33.3-.088.08-.177.16-.267.24l-.142.12c-.388.34-.786.67-1.195.99-.23.18-.463.36-.7.54l-.035.02-.154.11-.156.12-.156.11c-.053.04-.105.07-.158.11l-.122.09c-.461.31-.934.62-1.418.92l-.081.05-.167.1-.168.1-.135.08c-.236.14-.475.27-.717.4-10.878 5.98-23.829 4.6-33.102-2.48h-.001c-.054-.04-.109-.08-.163-.13l-.144-.11-.152-.12-.152-.12-.151-.12-.151-.12-.149-.12-.149-.13-.148-.12-.148-.13h-.008l-.054-.05-.085-.08h-.007l-.058-.05-.081-.07-.007-.01-.061-.06-.077-.06-.007-.01-.064-.06-.073-.06-.008-.01-.066-.06-.07-.07h-.007l-.069-.07-.067-.06h-.007l-.071-.07-.064-.06-.007-.01-.073-.07-.061-.06h-.007l-.075-.08-.059-.05-.006-.01-.077-.07-.063-.06-.078-.08-.061-.06-.079-.08-.059-.06-.079-.08-.058-.06-.08-.08-.057-.06-.08-.08-.055-.06-.081-.09-.054-.06-.081-.08-.053-.06-.081-.09-.052-.05-.128-.14-.004-.01-.127-.14h-.005l-.126-.15h-.004l-.126-.15h-.004l-.125-.15h-.004l-.124-.15h-.004l-.123-.15h-.004l-.123-.15-.003-.01-.122-.15h-.004l-.121-.15h-.003l-.121-.16h-.003l-.12-.15-.003-.01-.118-.15h-.003l-.118-.16h-.003l-.118-.16-.119-.16-.118-.16-.117-.16-.119-.17-.115-.16-.114-.17-.114-.17-.112-.16-.111-.17-.111-.17-.109-.17-.109-.17-.107-.17-.107-.18-.105-.17-.105-.17-.103-.18-.103-.18-.101-.17-.101-.18-.099-.18c-4.577-8.33-4.84-17.88-1.537-26.07l.008-.02.025-.06c.075-.18.152-.36.23-.55l.028-.06.009-.02c.222-.52.459-1.02.71-1.52l.057-.12.083-.16.056-.11c.104-.2.209-.4.317-.6l.058-.1.051-.09c.055-.1.111-.2.167-.3.087-.15.175-.3.265-.45.295-.5.606-.99.931-1.47.195-.29.394-.58.599-.86.248-.34.504-.68.767-1.01l.083-.11.035-.04c.208-.26.42-.51.636-.77l.04-.04.093-.11c.148-.17.298-.34.451-.51.212-.23.429-.46.651-.69.077-.08.156-.16.235-.24.201-.2.405-.4.613-.6l.019-.02.035-.03c.163-.16.329-.31.496-.46l.021-.02.058-.05c.162-.15.326-.3.492-.44l.017-.01.022-.02c.327-.28.661-.56 1.003-.83l.034-.02c1.267-1 2.63-1.91 4.084-2.71zm37.751 13.98c6.981 12.71 2.334 28.69-10.372 35.67-8.406 4.62-18.247 4.15-25.958-.39l.138-.1.076-.05.047-.03.035-.03.055-.03.04-.03.025-.02.038-.02.038-.03.028-.02.042-.03.048-.04.024-.01.014-.01.065-.05.053-.04.009-.01c.045-.03.089-.06.134-.09l.011-.01.045-.04.065-.04.022-.02.022-.02.037-.02.045-.04.039-.03.032-.02.026-.02.029-.02.061-.05.036-.03.028-.02.124-.09c.046-.04.092-.08.139-.11l.01-.01.031-.03.067-.05.031-.02.021-.02.026-.02.045-.04.05-.04.027-.02.017-.01.027-.02.082-.07.028-.02c.046-.04.093-.08.139-.12l.114-.09.033-.03.024-.02.062-.05.04-.04.019-.01.019-.02.041-.03.062-.06.022-.02.034-.03.109-.09c.047-.04.093-.08.139-.12l.103-.09.029-.03.012-.01.02-.02.055-.05.047-.04.019-.02.014-.01.035-.03.074-.07.022-.02c.089-.08.177-.16.264-.25l.095-.08.034-.04.014-.01.018-.02.046-.04.053-.05.019-.02.011-.01.028-.03.085-.08.013-.01c.086-.09.171-.17.256-.25l.009-.01.018-.02.059-.06.038-.04.017-.02.016-.01.037-.04.059-.06.019-.02.03-.03.1-.11c.042-.04.084-.08.125-.13l.095-.1.025-.02.013-.02.02-.02.047-.05.041-.04.019-.02.015-.02.029-.03.068-.07.022-.03c.079-.08.157-.17.235-.26l.008-.01.023-.02.056-.07.028-.03.017-.02.021-.02.036-.04.042-.05.024-.03.014-.01.021-.03.064-.07.028-.03c.038-.05.075-.09.112-.13l.094-.11.016-.02.013-.02.027-.03.042-.05.028-.04.022-.02.022-.03.026-.03.042-.05.028-.04.027-.03.065-.08.03-.04c.034-.04.069-.08.103-.12l.009-.01.032-.04.048-.06.017-.03.018-.02.029-.04.03-.03.028-.04.027-.03.021-.03.018-.03.04-.05.035-.04.018-.03.062-.08.032-.04.037-.05.054-.07.021-.03.036-.04.034-.05.016-.02.024-.03.029-.04.021-.03.026-.04.034-.04.019-.03.011-.02.035-.04.043-.06.108-.15.048-.07.032-.05.026-.03.038-.06.023-.03.016-.02.029-.05.028-.04.014-.02.022-.03.041-.06.023-.03.023-.03.058-.09c.034-.05.068-.1.102-.15l.051-.08.02-.03.007-.01.024-.03.037-.06.015-.02.014-.03.035-.05.026-.04.008-.01.017-.03.049-.07c.033-.06.066-.11.099-.16l.098-.16.048-.07.049-.08.035-.06.061-.1.095-.15c.031-.06.062-.11.094-.16l.093-.16.045-.08.047-.08.036-.06.006-.01c.098-.17.194-.35.288-.52l.028-.05.087-.16.029-.06c.118-.22.234-.44.346-.66l.002-.01c.631-1.26 1.174-2.55 1.625-3.88l.029-.09.058-.17.057-.17.036-.12.003-.01c.047-.14.092-.29.136-.44l.041-.13.023-.08.006-.02.005-.02.018-.06.043-.15c.042-.14.083-.29.123-.44l.029-.11.047-.18.028-.11.017-.06.024-.1.02-.08.02-.08.023-.1.018-.07.024-.11.015-.06.026-.11.013-.06.027-.12.013-.06.004-.02.022-.1.038-.18.009-.05c.04-.19.077-.38.112-.56l.003-.02c.035-.19.069-.38.101-.57l.01-.06.017-.1.012-.08.014-.09.005-.03.002-.01.007-.05.012-.08.005-.03.003-.02.007-.05.01-.07.005-.03.003-.02.008-.06.009-.06.004-.03.004-.03.008-.06.007-.06.004-.02.004-.03.009-.07.006-.05.003-.02.004-.04.01-.07.005-.05.002-.01.004-.04.011-.09.005-.04.004-.04.011-.1.004-.04.004-.03.012-.11.005-.05c.023-.22.043-.44.06-.66l.002-.02.009-.12.005-.06.007-.1.003-.05.003-.03.006-.09.003-.05.001-.02.002-.03s.004-.08.004-.08l.003-.04.001-.02.003-.04.003-.07.003-.04.001-.03.002-.04.003-.07.002-.04.002-.03.002-.05.002-.05.002-.04.001-.04.002-.05.002-.05.001-.03.002-.04.002-.07.001-.04.001-.02.001-.05.002-.07.001-.03.001-.03.001-.05.001-.07.001-.03v-.02l.001-.06.001-.08.001-.03v-.06l.001-.09v-.03l.001-.05v-.1-.19c-.001-.06-.001-.12-.002-.18l-.001-.11-.001-.08-.002-.09-.001-.06-.001-.03s-.002-.08-.002-.08l-.001-.06-.001-.04-.003-.08-.002-.06v-.02l-.001-.03-.003-.07-.002-.05-.001-.03-.001-.03-.003-.06-.002-.05-.002-.04-.001-.04-.003-.05-.002-.05-.002-.04-.003-.04-.002-.05-.003-.04-.002-.05-.003-.05-.003-.04-.002-.04-.003-.05-.004-.05-.002-.04-.002-.03-.004-.05-.004-.06-.003-.04-.001-.02-.005-.06-.005-.07-.002-.02-.002-.03-.005-.06-.006-.07-.003-.04-.006-.07-.007-.08-.002-.02-.008-.08-.007-.08-.001-.02-.01-.09-.007-.08-.02-.18-.008-.08-.01-.09-.002-.01-.009-.08-.01-.08-.003-.03-.009-.07-.009-.07-.005-.04-.008-.07-.009-.07-.003-.02-.004-.03-.008-.06-.009-.06-.004-.03-.004-.03-.008-.06-.008-.05-.005-.04-.005-.04-.008-.05-.007-.05-.007-.04-.006-.04-.007-.04-.007-.05-.007-.05-.007-.04-.007-.04-.006-.04-.009-.06-.008-.05-.006-.03-.006-.04-.01-.06-.009-.05-.005-.03-.005-.03-.012-.06-.01-.07-.004-.02-.004-.02-.014-.07-.011-.07-.007-.04-.015-.08-.013-.06-.004-.03-.019-.09-.012-.07-.003-.01-.034-.17c-.012-.06-.025-.12-.037-.18l-.036-.17-.004-.02-.014-.06-.02-.09-.006-.03-.014-.06-.018-.08-.005-.02-.004-.02-.015-.06-.016-.07-.006-.03-.006-.02-.013-.06-.016-.07-.007-.03-.008-.03s-.012-.05-.012-.05l-.015-.06-.009-.03-.009-.04-.011-.05-.013-.05-.011-.04-.011-.04-.011-.05-.011-.04-.013-.05-.012-.05-.01-.03-.01-.04-.015-.06-.013-.05-.009-.03-.009-.03-.017-.06-.015-.06-.007-.03-.008-.03-.019-.06-.017-.06-.006-.02-.006-.03-.022-.07-.017-.06-.01-.04-.026-.08-.018-.06-.006-.03-.031-.1-.017-.06-.004-.01-.052-.17c-.018-.06-.036-.11-.055-.17l-.053-.17-.006-.02-.02-.06-.029-.09-.01-.03-.02-.06-.026-.08-.008-.02-.006-.02-.02-.06-.024-.07-.009-.02-.009-.03-.018-.05-.022-.07-.012-.03-.01-.03-.018-.05-.02-.06-.014-.03-.012-.04-.016-.04-.019-.06-.016-.04-.014-.04-.015-.04-.016-.04-.019-.05-.016-.05-.014-.03-.014-.04-.021-.06-.019-.05-.011-.03-.013-.03-.024-.06-.02-.06-.01-.02-.011-.03-.027-.07-.022-.05-.008-.02-.009-.03-.031-.07-.023-.06-.013-.03-.035-.09-.024-.06-.009-.02-.043-.1-.022-.06-.004-.01-.071-.17c-.024-.05-.048-.11-.073-.17l-.07-.16-.009-.02-.026-.06-.039-.09-.013-.03-.027-.06-.034-.07-.01-.02-.009-.02-.025-.06-.032-.07-.012-.03-.012-.02-.024-.05-.029-.06-.015-.04-.014-.03-.022-.04-.027-.06-.018-.04-.016-.03s-.021-.05-.021-.05l-.023-.04-.021-.05-.019-.04-.019-.04-.021-.04-.025-.05-.021-.04-.017-.04-.018-.03-.028-.06-.023-.05-.015-.02-.017-.04-.031-.06-.025-.05-.013-.02-.014-.03-.035-.07-.028-.05-.01-.02-.011-.03-.04-.07-.029-.06-.016-.03-.046-.08-.03-.06-.011-.02-.055-.1-.027-.05-.003-.01c-.03-.06-.061-.11-.091-.17 0 0-.1-.18-.1-.18l-.029-.05-.016-.03-.018-.03-.037-.07-.079-.13-.017-.03c-.044-.08-.088-.15-.132-.23l-.014-.02-.02-.04-.046-.08-.066-.11-.019-.03-.008-.01c-.045-.08-.09-.15-.135-.22l-.011-.02-.021-.04-.057-.09-.056-.09-.022-.03-.011-.02c-.046-.07-.092-.15-.139-.22l-.008-.01-.019-.03-.071-.11-.048-.08-.021-.03-.016-.02-.025-.04-.036-.06h-.004l-.005-.01-.067-.1-.01-.01-.014-.02-.088-.14-.041-.06-.021-.03-.018-.02-.034-.05-.114-.17c-.05-.07-.099-.14-.149-.21l-.019-.03-.021-.03-.043-.06-.09-.12-.021-.03c-.05-.07-.101-.14-.151-.21l-.016-.02-.024-.03-.053-.07-.075-.1-.022-.03-.009-.01c-.049-.07-.098-.13-.147-.2l-.02-.02-.024-.03-.066-.09-.064-.08-.024-.03-.013-.02c-.053-.06-.106-.13-.159-.2l-.008-.01-.022-.03-.081-.09-.054-.07-.025-.03-.017-.02-.029-.04-.04-.05h-.005l-.006-.01-.076-.09-.01-.01-.016-.02-.101-.12-.046-.06-.023-.02-.021-.03-.038-.04-.129-.15c-.056-.07-.112-.13-.168-.19l-.02-.03-.024-.03-.049-.05-.1-.11-.018-.02-.006-.01c-.056-.06-.113-.12-.17-.19l-.017-.01-.026-.03-.06-.07-.084-.09-.025-.02-.01-.01c-.054-.06-.109-.12-.164-.18l-.022-.02-.027-.03-.073-.08-.071-.07-.027-.03-.015-.01c-.058-.06-.117-.12-.175-.18l-.01-.01-.024-.02-.09-.09-.06-.06-.027-.03-.019-.02-.033-.03-.044-.04-.005-.01-.017-.02-.074-.07-.141-.13-.05-.05-.025-.03.141-.05c12.04-4.59 25.942.29 32.323 11.9zm-40.257 37.26h.043-.084zm3.74-47.14.049.04.717.63s.737.7.737.7.713.73.713.73.686.76.686.76.659.79.659.79.5.65.5.65l.609.85s.579.88.579.88.547.91.547.91.516.95.516.95.519 1.05.519 1.05.466 1.05.466 1.05.415 1.07.415 1.07.366 1.08.366 1.08.317 1.08.317 1.08.268 1.09.268 1.09.219 1.09.219 1.09.172 1.1.172 1.1.124 1.1.124 1.1.078 1.1.078 1.1.031 1.09.031 1.09-.013 1.08-.013 1.08-.011.28-.011.28-.012.25-.012.25l-.002.02-.014.24-.002.03-.017.25-.001.01-.02.25s-.097.95-.097.95-.153 1.08-.153 1.08-.197 1.07-.197 1.07-.202.9-.202.9-.231.89-.231.89l-.123.43-.048.16-.01.03-.04.13-.011.03-.039.13-.012.03-.04.13-.012.03-.042.13-.01.03-.047.14-.006.02c-.074.21-.15.43-.229.64l-.006.02-.052.14-.011.03-.048.12-.014.04-.046.12-.016.04-.046.12-.016.03-.05.13-.013.03-.063.15s-.374.86-.374.86-.402.84-.402.84l-.43.82-.377.67-.111.19-.023.04-.111.18-.013.02-.103.17-.022.03-.114.18-.021.04-.104.16-.019.03-.115.18-.028.04-.11.16-.011.02-.119.17-.031.05-.12.17-.014.02-.112.16-.03.04-.123.17-.024.03-.109.15-.028.04-.126.17-.029.03-.116.15-.019.03-.131.17-.031.04-.135.17-.609.73s-.635.7-.635.7l-.662.69s-.686.66-.686.66l-.581.52s-.117.1-.117.1c-.233.2-.47.4-.711.59l-.027.03-.126.09-.915.7-.867.59s-.833.54-.833.54l-.195.11-.111-.09c-2.342-1.99-4.362-4.44-5.929-7.29-1.609-2.93-2.601-6.03-3.018-9.15-.046-.35-.084-.69-.117-1.04l-.014-.15c-.4-4.6.426-9.21 2.341-13.35l.02-.05.018-.03c.086-.19.174-.37.264-.55.089-.18.18-.36.273-.54l.064-.12.073-.14.073-.13.061-.11c.073-.14.147-.27.222-.4.046-.08.094-.16.141-.24.086-.15.174-.29.262-.44l.014-.02.082-.13.082-.13.013-.02c.129-.21.262-.41.398-.61.092-.14.185-.27.279-.41l.043-.06c.076-.1.152-.21.229-.32l.092-.12c.032-.05.065-.09.098-.13l.089-.12.07-.09c.093-.13.188-.25.284-.37l.028-.04.025-.03c.108-.13.218-.27.329-.4l.042-.05.1-.12.102-.12.102-.12.042-.05c.35-.4.712-.79 1.087-1.17l.048-.05.111-.11.113-.12.113-.11c.038-.03.076-.07.114-.11l.114-.11.019-.01c.178-.17.358-.34.541-.5l.024-.02.119-.11c.118-.1.237-.21.357-.31.043-.04.085-.07.127-.11l.123-.1c.587-.49 1.201-.95 1.839-1.4l.092-.06.134-.09c.408-.27.822-.54 1.243-.79z" fill="var(--theme-color-darker)"/></g></svg>