<svg fill="none" height="19" viewBox="0 0 19 19" width="19" xmlns="http://www.w3.org/2000/svg" xmlns:xlink="http://www.w3.org/1999/xlink"><clipPath id="a"><path d="m.661133.813477h17.7966v17.7966h-17.7966z"/></clipPath><g clip-path="url(#a)" fill="currentColor"><path d="m7.02684 1.18437c-2.00229.59516-3.73112 1.87625-4.88332 3.61864-.15823.2855-.25705.60005-.29046.92475v-3.124h-1.18558v4.74231h4.7423v-1.18558h-2.6794c1.3274-2.55362 3.95116-4.17071 6.82892-4.20879 3.4128.03968 6.4042 2.29164 7.3861 5.56035l1.1382-.33789c-1.3992-4.70729-6.3495-7.388991-11.05676-5.98979z"/><path d="m13.7088 12.0883v1.1856h2.6794c-1.3274 2.5536-3.9511 4.1707-6.82887 4.2088-3.4128-.0397-6.40419-2.2916-7.38614-5.5603l-1.13816.3379c1.40521 4.7054 6.35892 7.3808 11.06437 5.9756 2.061-.6154 3.829-1.9571 4.9765-3.7764.1229-.232.188-.4903.1897-.7528v3.124h1.1855v-4.7424z"/></g></svg>