<svg width="42" height="42" clip-rule="evenodd" fill-rule="evenodd" stroke-linecap="round" stroke-linejoin="round" viewBox="0 0 42 42"
  xmlns="http://www.w3.org/2000/svg">
  <g fill="none" stroke="var(--main-color)" stroke-width="1.1" transform="translate(-1823.52 -211.656)">
    <path d="m1836.02 239.435c1.35-2.701 4.36-4.251 7.12-5.172.61-.201 4.17-1.126 4.38-1.541" />
    <path d="m1836.87 232.31c-1.5 1.503-2.05 5.201-1.07 7.153" />
    <path d="m1847.74 232.695c.67.335 4.76 4.41 4.76 5.392" />
    <path d="m1852.63 238.17c.32-1.249.56-2.531.5-3.824-.02-.356-.44-1.867-.44-1.734" />
    <path
      d="m1836.82 232.399c-.04-.227.46-.1.69-.108 1.09-.037 2.18-.017 3.27-.025 2.67-.02 5.37.123 8.04.237 1.17.051 2.04.094 3.87.109" />
    <path
      d="m1837.07 222.774c0-.203.03.405.02.608-.01.46-.01.92-.02 1.38-.04 1.668-.14 3.338-.14 5.006 0 .531-.02 1.06-.02 1.59 0 .18 0 .821 0 .772" />
    <path d="m1852.56 223.12c0 3.126.16 6.272.16 9.379" />
    <path d="m1848.56 218.265c1.46-2.346 5.94-2.173 6.1 1.165.05.945-.11 3.233-2.02 3.494" />
    <path d="m1842.11 218.764c0-2.419 3.35-4.314 5.33-2.733.28.228 1.42 2.297 1.12 2.448" />
    <path d="m1837.17 222.734c-2.92-1.462-.9-5.749 2.02-5.871 1.19-.05 2.24.709 2.92 1.901" />
    <path d="m1850.91 238.769c-1.7-.801-2.8 2.45-1.23 3.157 1.99.899 3.14-2.251 1.23-3.157z" />
    <path d="m1850.27 240.172v-.046l-.02.046.05-.016.02-.03z" />
    <path
      d="m1839.38 238.443c-1.86-.554-2.66 3.064-.53 3.339.55.072.99-.236 1.27-.672.15-.238.25-.514.31-.788.15-.811-.16-1.612-1.05-1.879z" />
    <path d="m1838.9 239.795-.04.011.04-.011-.01-.031-.04.054.01.031.03-.025-.01-.046-.03.011v.044l.03-.011" />
    <path d="m1843.23 242.768c0 .849 1.76.87 1.76 0" />
    <path d="m1843.23 246.206c.45.632 1.61.23 2.1-.131" />
    <path d="m1835.42 239c-.29 0-.55-.099-.84.02-1.1.46-.77 2.256.39 2.256" />
    <path d="m1852.66 238.319c.99-.598 2.01.439 1.94 1.44-.04.679-.78.917-1.3 1.089" />
    <path d="m1834.97 241.276c.93 9.39 9.9 11.355 14.92 7.603 2.22-1.66 3.4-5.042 3.41-8.031" />
    <path d="m1826.77 252.222c2-2.992 5.35-6.714 8.63-8.352" />
    <path d="m1852.96 243.689c2.26.754 4.7 4.228 5.84 6.061.21.341 1.76 3.416 1.64 3.381" />
  </g>
</svg>