<svg  width="42" height="42" clip-rule="evenodd" fill-rule="evenodd" stroke-linecap="round" stroke-linejoin="round" viewBox="0 0 42 42"
  xmlns="http://www.w3.org/2000/svg">
  <g fill="none" stroke="var(--main-color)" stroke-width="1.1" transform="translate(-1894.77 -419.15)">
    <path d="m1906.82 441.715c-.1-1.639-.02-3.295 1.22-4.527.44-.44.9-.757 1.41-1.087" />
    <path d="m1909.14 438.43c.05-.47.15-2.195.31-2.329" />
    <path d="m1909.23 438.542c.56-1.231 2.26-2.548 3.5-3.096.43-.191 1.59-.437 1.51.291" />
    <path d="m1914.41 435.868c5.14-.543 12.2-2.055 11.5 5.479" />
    <path d="m1906.7 442.007c-.01.068-.2-.659-.25-.848-.15-.543-.5-1.574-1.17-1.636" />
    <path
      d="m1905.26 439.274c-.21-.537-.07-1.451-.06-2.028.03-1.98-.03-4.017-.07-5.991 0-.267.14-1.504.52-1.562.04-.006.44.775.56.63.56-.688.2-3.415 1.42-4.162.06-.038.46 1.327.53 1.411.1.127.04-.327.08-.487.05-.206.11-.44.15-.648.1-.563.26-1.194.44-1.733.11-.29 1.63.063 1.89.174" />
    <path d="m1910.91 424.979c.32.197.58.424.9.619" />
    <path
      d="m1911.95 425.527c-.19-.044 1.41-1.106 1.54-1.179.75-.4 1.99-1.499 2.83-1.512.28-.004.33.96.63.932.09-.009.23-.462.29-.447.17.04 1.21 2.194 1.36 2.554" />
    <path d="m1918.8 425.922c-.04-.177.18-.236.29-.326.99-.781 2.03.354 3.18.622.39.091 2.81-.008 2.6.361" />
    <path
      d="m1924.87 426.579c-1.06 0-.82 1.117-.54 1.8.19.485 1.25.809 2.37 3.275.83 1.841.71 3.388.49 5.368-.04.443-.09 2.037-.09 2.037s-1.33.808-1.11 2.411" />
    <path d="m1906.25 444.196s-.91.283-1.64-.97c-.47-.804-.5-2.072-.12-2.897.1-.211.48-.834.79-.677" />
    <path d="m1926.13 443.67c.67.604.92.49 1.67-.114.9-.722 1.85-4.961-.7-4.497" />
    <path d="m1909.94 441.102c-1.75.149-1.79 3.858.37 3.599 2.2-.262 2.17-3.816-.37-3.599z" />
    <path d="m1922.64 440.959c1.87.306 1.63 3.654-.46 3.349-1.83-.268-1.82-3.724.46-3.349z" />
    <path d="m1922.41 442.547-.05.091-.01-.114-.02.06" />
    <path d="m1910.34 442.959.04-.054-.11-.04-.02.142.04-.082" />
    <path d="m1915.06 446.205c-.19.94 2.29 1.327 2.58-.041" />
    <path d="m1914.12 449.865c1.41.914 3.91.566 5.23-.211" />
    <path d="m1926.12 443.739c-1.26 7.322-2.97 12.903-10.88 12.21-7.76-.681-9.1-11.756-8.73-11.625" />
    <path
      d="m1907.45 449.043c-4.92 3.05-8.27 6.559-10.64 11.972-.62 1.403-1.05 2.898-1.47 4.368-.11.393-.57 1.957-.57 1.817" />
    <path d="m1924.96 449.301c7.02 3.239 11.89 11.3 12.81 18.766" />
  </g>
</svg>