<svg width="42" height="42" clip-rule="evenodd" fill-rule="evenodd" stroke-linecap="round" stroke-linejoin="round" viewBox="0 0 42 42"
  xmlns="http://www.w3.org/2000/svg">
  <g fill="none" stroke="var(--main-color)" stroke-width="1.1" transform="translate(-1820.91 -287.127)">
    <path d="m1831.63 309.866c-1.19-.593-1.39-3.315-1.08-4.228" />
    <path d="m1830.55 305.716c.26-1.327 3.98.37 6.72-2.315 2.79-2.73 6.08-5.393 10.68-5.393" />
    <path
      d="m1831.63 309.866c-3.23.038-3.27-3.577-3.14-4.992.27-2.886 3.18-5.6 3.18-5.6s.28.094 0 0c-3.68-1.235.38-4.38.38-4.38-1.51 2.828 1.89 2.781 1.89 2.781s1.02-1.98 5.17-3.222c5.19-1.552 8.87.365 8.84.385" />
    <path d="m1848.05 294.915c-.3.894 0 2.105 0 3.042" />
    <path d="m1852.98 303.198c.15.257.28.49.38.687" />
    <path d="m1848.05 298.034c1.51.301 3.84 3.342 4.93 5.164" />
    <path d="m1852.69 309.582c.84-.661 1.51-3.839.75-5.512" />
    <path d="m1852.58 309.86c2.76-.551 4.05-3.827 3.4-6.398-.93-3.711-4.3-6.908-7.61-8.561" />
    <path d="m1830.12 309.587c-1.71-.569-1.83 3.214.31 2.144" />
    <path d="m1854.2 309.392c1.84-1.376 1.68 2.999-.19 1.754" />
    <path d="m1842.08 321.184c5.68-.064 9.75-4.425 11.06-7.724.4-1.002.46-1.451.79-2.102" />
    <path d="m1830.61 311.739c.81 3.985 6.31 9.348 11.47 9.445" />
    <path d="m1847.7 306.287c-2.5-.108-2.66 3.121-.62 3.543 2.64.549 2.58-3.459.62-3.543z" />
    <path d="m1847.19 309.276c.08-.769.43-2.228.51-2.989" />
    <path d="m1836.44 307.114c-1.83.944-1.66 3.707.39 3.349 2.79-.49 1.22-4.185-.39-3.349z" />
    <path d="m1836.99 310.156c-.12-.819-.64-2.22-.55-3.042" />
    <path d="m1841.58 310.986c.25.682 1.4.376 1.7-.081" />
    <path d="m1839.61 315.227c1.3-.267 4.54.028 5.59-.576" />
    <path d="m1839.68 315.514c0-.273.5 2.289.61 2.121.41-.61.91-1.877 1.24-2.543" />
    <path d="m1843.47 315.016c.32.635.78 1.844 1.46 2.459" />
    <path d="m1845.38 314.579c0 .901-.17 2.03-.45 2.896" />
    <path
      d="m1831.48 314.084c-.58-.28-1.73 1.494-1.97 1.835-1.65 2.357-2.24 5.206-2.59 8.014-.1.838-.08 1.699-.1 2.543 0 .025-.02.979.01.741" />
    <path
      d="m1853.53 313.307c-.04 0 1.06.519 1.33.772.84.776 1.52 1.84 1.9 2.914.92 2.599 1.21 5.529 1.51 8.25.08.738.14 1.469.14 2.212 0 .142.04 1.223-.04.913" />
    <path d="m1842.39 321.302c0 3.606.1 7.205.1 10.81" />
    <path d="m1845.19 305.695c.89-.45 2.09-1.553 2.82-2.276" />
    <path d="m1838.82 305.837c-.82-.473-1.46-1.07-2.13-1.74" />
  </g>
</svg>