<svg width="42" height="42" clip-rule="evenodd" fill-rule="evenodd" stroke-linecap="round" stroke-linejoin="round" viewBox="0 0 42 42"
  xmlns="http://www.w3.org/2000/svg">
  <g fill="none" stroke="var(--main-color)" stroke-width="1.1" transform="translate(-1694.42 -285.225)">
    <path d="m1702.15 306.393c1.32-1.526 5.69-3.626 7.78-3.78" />
    <path d="m1702.09 306.466c1.78-4.316 5.55-8.808 10.76-8.45" />
    <path d="m1715.83 298.205c-.82-.013-2.98-.189-2.98-.189" />
    <path d="m1715.65 296.553c-.43-.44-1.46-.394-2.02-.333-.31.033-1.2.119-.9.167" />
    <path d="m1712.81 297.881c-.03-.161-.19-.864-.1-1.37" />
    <path d="m1715.72 298.123c-.09-.463-.06-1.104.07-1.574" />
    <path d="m1710.09 302.588c1.85 2.803 4.08 2.013 6.87 1.975 1.97-.028 3.94.365 5.76 1.081.77.3 1.79.56 2.32 1.241" />
    <path d="m1715.83 298.205c4.29.782 9.44 3.611 9.24 8.677" />
    <path
      d="m1712.68 296.243c-.94-1.061-.27-4.8.33-6.013 2.18-4.355 7.96-5.972 12.42-4.44.83.283 1.78.783 2.42 1.402 2.06 2.018 2.58 4.756 2.2 7.519-.21 1.512-.72 3.014-.22 4.553.4 1.262 2.39.898 2.33.135" />
    <path
      d="m1715.79 296.549s.05-.42.14-.591c.26-.467.73-.788 1.24-.939 1.39-.419 2.88-.558 4.23.086 3.21 1.53 3.05 5.909 6.61 7.789 1.27.671 2.88.493 4.14-.792 1.2-1.222.37-2.359.01-2.703" />
    <path d="m1701.79 309.429c-2-.339-1.49-3.07.38-2.751" />
    <path d="m1725.06 307.155c.54-1.001 2.57.817 1.21 2.258-.2.213-.59.535-.91.481" />
    <path d="m1725.34 309.969c.29 6.955-5.76 14.469-13.26 13.378-7.48-1.089-9.82-8.359-10.04-13.657" />
    <path d="m1720.6 311.094c-2.11-.647-3.05 2.338-.99 3.11 1.89.71 3.18-2.439.99-3.11z" />
    <path d="m1720.12 312.605-.06.026.08-.026-.05.026" />
    <path d="m1707.98 309.968c-2.23-.552-3.25 2.538-.92 3.169 2.1.567 2.9-2.679.92-3.169z" />
    <path d="m1707.49 311.475-.06.005.04.041.04-.037-.07-.028-.04.038" />
    <path d="m1712.34 315.287c.46.92 1.75 1.112 2.22.169" />
    <path d="m1712.68 318.645c-1.3-1.702-1.7 1.801.12 1.801 1 0 1.86-2.108.8-2.636-.5-.251-.76 1.051-.92.835z" />
    <path
      d="m1702.49 313.976c-1.73.873-3.29 2.503-4.67 3.811-2.29 2.152-4.32 4.469-5.99 7.122-.83 1.307-1.6 2.673-2.27 4.063-.26.519-.51 1.068-.7 1.61-.01.029-.34.617-.21.428" />
    <path d="m1724.38 316.05c4.82 4.822 6.28 10.864 7.03 17.395.16 1.356.29 2.678.22 4.044 0 .051.01.939-.15.971" />
  </g>
</svg>