<svg width="42" height="42" clip-rule="evenodd" fill-rule="evenodd" stroke-linecap="round" stroke-linejoin="round" viewBox="0 0 42 42"
  xmlns="http://www.w3.org/2000/svg">
  <g fill="none" stroke="var(--main-color)" stroke-width="1.1" transform="translate(-1758.89 -364.276)">
    <path
      d="m1767.53 382.446c.03.926-.29 2.816.34 2.805.64-.011.92.852 1.02.698.17-.25.08-1.112.12-1.461.12-.986.61-2.434 1.35-3.137.92-.868 1.97-.518 3.13-.668 1.54-.199 2.93-.448 4.48-.461 1.1-.009 2.24.534 3.35.391.47-.061.93-.314 1.41-.327 1.99-.051 5.11.188 6.6 1.606.84.802.73 3.433.9 4.481" />
    <path
      d="m1767.53 382.446c-.23-3.711.59-8.798 3.51-11.489.87-.807 1.97.355 2.34.126 1.14-.715 2.92-1.395 4.27-1.616.28-.047.46.396.79.387.43-.011.77-.366 1.18-.452.5-.102.86.108 1.32.104 1.27-.01 2.44-.593 3.72-.254.45.118.57.558.95.652 1.84.451 1.8.044 3.1 1.689.52.657 2.08.401 2.67 1.147.42.537.61 1.327.9 1.974.23.513.84.64.98 1.294.41 1.95-.61 3.985-1.03 5.878-.25 1.133-1.09 2.993-1.23 4.174" />
    <path d="m1768.74 385.98c.05-.417-1.13-.997-1.49-.715-1.33 1.053-.7 3.453 1.65 3.143" />
    <path d="m1790.23 386.373c1.04-.823 1.89.114 1.53 1.211-.28.869-.73 2.01-2.02 1.774" />
    <path d="m1777.28 391.486c-.07-.066.11.402.18.487.21.257.67.471.97.583.94.351 1.77-.301 1.99-1.189" />
    <path d="m1770.61 392.136c2.67-.052 3.95-.357 6.64-.074" />
    <path d="m1780.27 392.086c2.75.289 4.74.001 7.69.073" />
    <path d="m1772.78 386.157c-2.41.824-.85 3.938 1.11 3.312 2.03-.648 1.18-4.092-1.11-3.312z" />
    <path d="m1785.79 386.506c-2.64-.716-3.12 2.381-1.1 3.053 1.89.628 3.3-2.454 1.1-3.053z" />
    <path d="m1785.19 388.068-.04-.027-.03.04.01-.065-.01.065" />
    <path d="m1770.48 385.551c.92-.716 2.6-1.393 3.82-1.241" />
    <path d="m1784.36 383.439c1.41.174 3.07 1.069 3.95 2.204" />
    <path d="m1768.99 388.52c.38 2.022.85 3.641 1.62 3.616" />
    <path d="m1787.96 392.159c.74.059 1.5-2.83 1.5-2.83" />
    <path
      d="m1767.78 388.325c0 2.553.65 4.92 1.68 7.241.98 2.218 2.75 4.212 4.85 5.413 3.44 1.967 9.14 1.334 12.02-1.321 1.81-1.674 3.31-5.313 3.79-7.7.08-.436.69-2.075.43-2.465" />
    <path
      d="m1767.78 388.325c0 2.553.65 4.92 1.68 7.241.98 2.218 2.75 4.212 4.85 5.413 3.44 1.967 9.14 1.334 12.02-1.321 1.81-1.674 3.31-5.313 3.79-7.7.08-.436.53-1.725.61-2.745" />
    <path d="m1777.29 394.676c1.21.14 2.54.177 3.76.077" />
    <path d="m1777.21 394.683c.01-.004.86 1.054 1.01 1.176.97.828 2.64.087 2.91-1.036" />
    <path d="m1768.77 393.989c-3.74.809-7.3 3.686-9.75 6.509-.85.985-1.81 1.993-2.52 3.093-.12.189-1 1.428-.92 1.412" />
    <path d="m1790.02 393.83c6.27 2.44 11.56 7.121 15.56 12.446" />
    <path d="m1773.28 387.757.01.037v.056-.056" />
  </g>
</svg>