<svg width="42" height="42" clip-rule="evenodd" fill-rule="evenodd" stroke-linecap="round" stroke-linejoin="round" viewBox="0 0 42 42"
  xmlns="http://www.w3.org/2000/svg">
  <g fill="none" stroke="var(--main-color)" stroke-width="1.1" transform="translate(-1624.24 -284.284)">
    <path d="m1638.32 307.635c-1.35-.568-2.81 2.15-1.02 2.933 1.83.802 3.34-1.961 1.02-2.933z" />
    <path d="m1637.91 309.225.08.014-.08.023.08-.023" />
    <path d="m1642.14 299.805c1.2 3.261 4.17 7.38 7.33 8.531 2.35.862 7.78-.243 8.39 3.401" />
    <path d="m1644.45 310.847c.18 1.018 1.55 1.075 1.69.016" />
    <path d="m1634.38 307.566c-2.14-.318-2.11 3.814-.06 3.086" />
    <path d="m1634.51 307.586c1.29-1.685 5.8-5.781 7.78-6.485" />
    <path d="m1634.33 310.915c.51 2.081 3.12 7.45 11.09 7.757 6.24.24 11.28-4.762 11.27-8.575" />
    <path d="m1645.1 314.219c-.74-2.318-2.13.619-.68 1.458.84.482 2.64-.882 1.91-1.823-.61-.77-1.1.801-1.23.365z" />
    <path d="m1642.02 311.807.09-.084-.06-.048-.05.058.06.048" />
    <path
      d="m1635.25 313.451c-4.41 2.331-8.38 6.523-11.43 10.487-.84 1.081-2.19 3.242-2.89 4.378-.3.496-1.08 1.661-.82 1.286" />
    <path d="m1655.26 314.293c4.49 3.119 7.99 7.502 11.38 12.646 1.76 2.66 3.47 4.858 3.72 5.634" />
    <path
      d="m1614.88 328.899c.25-2.305.83-4.374 2.04-6.336.4-.645 1.02-1.048 1.38-1.779.69-1.438.27-3.288.92-4.778.63-1.422 1.81-2.15 2.24-3.743.4-1.489 2.41-2.388 3.07-3.77.7-1.445 1.11-3.284 1.7-4.811.59-1.505 2.15-2.351 2.89-3.728.83-1.53.97-3.184 2.15-4.569.81-.952 2.24-.783 3.23-1.369 1.6-.942 2.7-2.655 4.25-3.691 2.46-1.639 3.43.217 5.33-.819.96-.521 1.87-.499 3.21-.23" />
    <path
      d="m1647.29 289.276c1.3.282 4.12.556 5.31 1.165 2.65 1.362 5.06 3.601 6.57 6.463.67 1.269.53 2.891 1.25 4.123.83 1.42 2.14 2.491 2.95 3.981.68 1.251.53 2.683 1.02 3.952.41 1.069 1.36 1.844 1.58 3.048.15.786-.04 1.628.2 2.374.6 1.793 2.59 3.157 3.22 5.25.34 1.166.23 2.399.66 3.564.72 1.954 2.33 3.632 3.21 5.55.19.421.26 1.628.52 1.898.3.308.89.457.92.898.06 1.002-.11.932.9 1.627" />
    <path d="m1650.51 308.604c-.15.226-.24.499-.24.83-.01 2.782 4.04 1.688 3.24-.415" />
    <path d="m1651.96 309.511-.03.039.06.036-.01-.049-.05.035-.01.043.03-.039" />
  </g>
</svg>