<svg width="42" height="42" clip-rule="evenodd" fill-rule="evenodd" stroke-linecap="round" stroke-linejoin="round" viewBox="0 0 42 42"
  xmlns="http://www.w3.org/2000/svg">
  <g fill="none" stroke="var(--main-color)" stroke-width="1.1" transform="translate(-1755.21 -286.617)">
    <path d="m1770.55 302.577c-2.14-.448-2.95 3.061-.91 3.399 2.01.336 3.01-2.956.91-3.399z" />
    <path d="m1769.98 304.258c0 .067-.01.05.05.05" />
    <path d="m1778.61 302.846c-1.62 2.708 3.01 6.097 4.88 2.34 1.67-3.339-3.19-5.152-4.88-2.34z" />
    <path d="m1768.05 294.939c2.05 3.028 7.18 6.482 10.48 8.016" />
    <path d="m1783.76 304.855c1.35.3 2.83.002 4.1-.487" />
    <path d="m1775.15 308.583c.44.639 1.54.535 1.92-.145" />
    <path d="m1774.24 311.59c1.19.244 4.59-.104 5.27-1.274" />
    <path d="m1764.38 305.034c-1.83-.221-2.04 4.007.36 3.148" />
    <path d="m1787.79 307.368c3.05 0 1.69-3.771.33-3.09" />
    <path d="m1787.71 307.425c-.83 6.426-7.1 13.369-14.25 10.828-3.98-1.415-7.36-5.313-8.72-10.071" />
    <path
      d="m1764.4 304.932c-.08-.411-.1-.58-.14-.985-.67-7.681 6.93-14.155 14.79-12.544 5.27 1.081 9.72 6.064 9.07 12.875" />
    <path d="m1764.14 313.364c-.17-1.575-.33-3.215-.33-4.8" />
    <path d="m1763.03 311.996c-.06-.008.34.006.42.012.39.028.79.005 1.19.017.09.002.06-.002.29.002" />
    <path d="m1767.53 313.858c-7.78 4.387-11.25 13.267-14.2 21.141" />
    <path d="m1785.86 313.267c7.24 3.491 11.93 11.799 14.42 19.223.94 2.797.53 4.411 1.37 7.185" />
  </g>
</svg>