<svg width="42" height="42" clip-rule="evenodd" fill-rule="evenodd" stroke-linecap="round" stroke-linejoin="round" viewBox="0 0 42 42"
  xmlns="http://www.w3.org/2000/svg">
  <g fill="none" stroke="var(--main-color)" stroke-width="1.1" transform="translate(-1624.08 -360.477)">
    <path d="m1631.62 368.548c0 6.154.12 12.334.12 18.474" />
    <path d="m1657.06 367.995c.84 3.876 1.4 7.897 2.1 11.807.29 1.567.39 3.335.87 4.858" />
    <path
      d="m1631.93 387.355c1.62-.106 3.2-.464 4.81-.664 4.72-.59 9.48-1.059 14.22-1.492 1.98-.18 9.31-.478 9.07-.539" />
    <path d="m1652.07 372.957c1.64-1.664 3.4-3.19 5.02-4.83" />
    <path d="m1637.28 373.634c4.82-1.195 10.07-1.513 14.97-.713" />
    <path d="m1631.84 368.614c1.75 1.715 3.69 3.243 5.44 4.953" />
    <path d="m1637.93 384.601c-2.22-1.01-.98-4.678 1.27-3.779 2.64 1.053 1.3 4.945-1.27 3.779z" />
    <path d="m1638.64 382.794v-.141l.05.141-.05-.094" />
    <path d="m1654.25 379.695c-2.41.138-2.57 3.6-.13 3.6 2.45 0 2.64-3.744.13-3.6z" />
    <path d="m1654.12 381.548.08-.085-.08.043.04-.085-.04.085" />
    <path d="m1659.52 384.819.03.096.02.128-.01.239" />
    <path
      d="m1659.54 385.553c-.58 4.416-4.6 9.586-8.96 10.735-2.78.734-5.96.504-8.74-.125-2.84-.643-5.91-2.635-7.64-5.022-.41-.563-1.78-3.936-1.58-3.759" />
    <path d="m1646.05 387.434c.75.561 1.68.155 2.17-.506" />
    <path d="m1645.49 390.25c.84.646 3.25.537 3.92-.321" />
    <path
      d="m1633.18 388.978c-.8-.4-3.64 2.897-4.5 3.987-2.4 3.056-4.3 6.482-5.85 10.032-.75 1.711-.98 3.753-1.8 5.402" />
    <path d="m1659.49 386.472c9.09 6.306 11.17 12.958 13.22 17.28.6 1.253 1.28 2.507 1.52 3.873" />
  </g>
</svg>