<svg width="42" height="42" clip-rule="evenodd" fill-rule="evenodd" stroke-linecap="round" stroke-linejoin="round" viewBox="0 0 42 42"
  xmlns="http://www.w3.org/2000/svg">
  <g fill="none" stroke="var(--main-color)" stroke-width="1.1" transform="translate(-1698.38 -365.454)">
    <path d="m1713.71 389.544c-2.11.477-1.47 4.054 1.32 3.208 2.03-.619 1.36-3.817-1.32-3.208z" />
    <path d="m1714.38 391.004-.08.064.05-.068-.08-.008-.04.068" />
    <path d="m1718.27 393.813c.3.803 1.64.716 2.02.125" />
    <path d="m1717.71 397.087c1.07.118 2.2-.125 3.27-.007" />
    <path d="m1710.08 390.824c1.77-2.55 3.24-3.776 4.21-5.708" />
    <path d="m1710.08 390.824c-.25-.493-1.03-.455-1.35.507-.39 1.208.47 2.441 1.3 1.61" />
    <path d="m1727.22 392.55c0-1.244 1.6-1.247 1.84.092.19 1.034-.41 1.887-1.24 1.404" />
    <path d="m1716.75 384.614c1.96 3.568 4.23 8.025 10.47 7.936" />
    <path d="m1707.16 388.183c4.55-3.443 7.94-3.837 14.2-3.693 5.93.136 10.04 3.61 9.81 3.571" />
    <path d="m1707.03 388.296c0 4.262.01 8.518.07 12.782.03 2.065-.02 3.087.19 6.332" />
    <path d="m1710.18 392.965c0 4.904.48 10.027.63 14.712" />
    <path d="m1727.76 394.194c-.13 2.752.29 10.599.29 13.717" />
    <path d="m1731.3 388.096c0 2.545.25 11.275.29 14.082.02 1.492.04 4.95.04 6.443 0 .685.1 1.455-.11 1.316" />
    <path d="m1710.18 392.965c.15 6.193 7.62 9.003 12.62 6.818 1.79-.782 4.45-2.769 4.96-5.589" />
    <path
      d="m1706.88 394.694c-3.86 2.446-7.13 5.795-9.68 9.554-.8 1.183-1.5 2.457-2.15 3.727-.45.881-.62 1.436-.63 1.233" />
    <path d="m1731.79 394.478c8.6 2.917 13.49 11.837 16.67 19.76" />
    <path d="m1707.95 383.655c-.93-1.571-.21-2.609 1.2-3.551.41-.266.93-.562 1.37-.727.15-.054.99-.216.65-.14" />
    <path d="m1707.02 388.101c-1.65-2.759-.86-3.572 1.55-4.593.72-.306 1.43-.729 2.21-.899" />
    <path d="m1718.69 381.378c2.07-.43 6.37-.068 7.93.861" />
    <path d="m1730.49 383.508c2.02.907 2.72 3.528.73 4.773" />
    <path d="m1727.47 378.317c2.22.322 4.34 1.115 4.48 3.63.03.677.01 1.187-.4 1.77" />
    <path d="m1708.39 380.332c-.22-1.088-.04-1.885 1.02-2.448" />
    <path
      d="m1709.54 377.737c.19-1.507 2.36-2.593 3.3-3.686 2.35-2.718 6.45-5.664 10.29-4.882 3.18.646 3.94 3.443 5.3 5.951.71 1.308 1.5 2.157 1.69 3.697" />
    <path d="m1713.71 389.544c-2.11.477-1.47 4.054 1.32 3.208 2.03-.619 1.36-3.817-1.32-3.208z" />
  </g>
</svg>