<svg width="42" height="42" clip-rule="evenodd" fill-rule="evenodd" stroke-linecap="round" stroke-linejoin="round" viewBox="0 0 42 42"
  xmlns="http://www.w3.org/2000/svg">
  <g fill="none" stroke="var(--main-color)" stroke-width="1.1">
    <path d="m1638.98 443.293c-2.57.141-2.47 4.133.12 3.779 2.42-.33 2.33-3.913-.12-3.779z"
      transform="translate(-1624.64 -426.321)" />
    <path d="m1651.82 442.914c-2.7-.396-3.07 3.869-.33 3.963 2.24.078 2.69-3.617.33-3.963z"
      transform="translate(-1624.64 -426.321)" />
    <path d="m1639.04 443.455c0 .744-.03 1.487-.03 2.231v.845c0 .049 0 .347 0 .26"
      transform="translate(-1624.64 -426.321)" />
    <path d="m1651.51 443.065c0 1.243.07 2.486.07 3.726" transform="translate(-1624.64 -426.321)" />
    <path d="m1643.79 447.607c.93-.108 1.89.002 2.82-.104" transform="translate(-1624.64 -426.321)" />
    <path d="m1645.24 449.238c-.35-.277-.9-.73-1.18-1.086-.08-.093-.15-.194-.23-.291-.02-.034-.1-.175-.1-.155"
      transform="translate(-1624.64 -426.321)" />
    <path d="m1645.24 449.238c.42-.45 1.01-.849 1.37-1.735" transform="translate(-1624.64 -426.321)" />
    <path d="m1655 457.218c-.99 1.65-3.49 4.066-3.05 5.758.36 1.366 1.72 1.361 2.42.941 1.47-.882 3.04-2.996 3.79-4.503"
      transform="translate(-1624.82 -426.887)" />
    <path
      d="m1633.47 458.661c.42 1.057 1.16 2.294 1.42 2.775.69 1.282 2.21 3.557 3.84 2.702.77-.405.86-1.597.65-2.305-.52-1.753-2.33-4.885-2.33-4.885"
      transform="translate(-1624.82 -426.887)" />
    <g transform="translate(-1624.64 -426.321)">
      <path d="m1640.41 437.754c2.3-.28 4.67-.151 6.97.101.73.08.96.095 1.58.216.78.153.86.226.8.154" />
      <path
        d="m1630.72 472.359c-.07-1.983-.1-2.799-.09-4.002.02-2.922.06-5.766.31-8.683.77-9.129 1.23-18.84 4.87-27.31" />
      <path
        d="m1654.75 432.438c.88 1.034 1.46 2.844 1.77 3.802 1.08 3.272 1.67 5.53 2.22 8.92.97 6.063 1.88 13.802 2.5 20.859.25 2.864.53 4.565.53 6.821" />
      <path d="m1649.9 438.244c1.24-2.064 2.95-4.289 4.73-5.917" />
      <path d="m1640.31 437.656c-1.25-1.981-2.89-3.602-4.5-5.292" />
      <path d="m1641.17 451.894c1.16-.258 3.23-.467 3.94-.505 1.29-.069 4.29-.446 4.73-.239" />
      <path d="m1647 451.235c.75 1.2 1.13 2.004 1.96 2.91" />
      <path d="m1641.17 451.894c.09.341.68 2.49.94 2.591.02.008 1.46-2.009 1.81-2.745" />
      <path d="m1649.84 451.15c-.28 1.059-.48 1.799-.86 2.918" />
    </g>
  </g>
</svg>