<svg width="42" height="42" clip-rule="evenodd" fill-rule="evenodd" stroke-linecap="round" stroke-linejoin="round" viewBox="0 0 42 42"
  xmlns="http://www.w3.org/2000/svg">
  <g fill="none" stroke="var(--main-color)" stroke-width="1.1" transform="translate(-1758.42 -213.036)">
    <path d="m1775.94 229.68c8.58-3.301 13.37-.81 15.41 3.028" />
    <path d="m1772.24 233.841c-.03-1.34.49-2.975 3.7-4.161" />
    <path d="m1770.76 229.978c-1.04 1.709-.19 3.485 1.48 3.863" />
    <path d="m1765.47 235.967s3.8-5.19 5.29-5.989" />
    <path d="m1765.47 235.967c-1.06-2.048.06-5.143 2.23-5.967" />
    <path d="m1767.65 229.849c-1.2-.758-2.25-3.354-2.1-4.752" />
    <path d="m1768.37 226.18c-.75-.001-1.78-.453-2.82-1.348" />
    <path d="m1768.37 226.2c-.26-1.127.26-4.441 1.6-4.95" />
    <path d="m1771.42 223.074c-.51-.178-1.42-1.744-1.37-1.705" />
    <path d="m1771.42 223.092c-.37-.772 1.77-5.351 1.71-5.24" />
    <path d="m1777.62 220.422c-.36-.739-3.8-2.034-4.49-2.57" />
    <path d="m1777.74 220.361c-.09-.909-.1-1.816-.02-2.722" />
    <path d="m1782.09 220.607c-.85-1.245-2.78-2.797-4.31-3.087" />
    <path d="m1781.71 217.902c.11.287.46 2.486.35 2.611" />
    <path d="m1785.66 220.498c-.6-1.009-2.74-2.097-3.88-2.604" />
    <path d="m1787.81 219.342c-.46.156-1.91.68-2.15 1.156" />
    <path d="m1789.77 222.759c0-.828-1.96-2.594-1.96-3.417" />
    <path d="m1789.77 222.759c1.21-.342 2.4-.107 2.94-.639" />
    <path d="m1792.17 225.799c.35-.541 1.23-2.313.54-3.679" />
    <path d="m1794.38 224.842c-.24.713-2.24 1.035-2.21.957" />
    <path d="m1794.48 225.107c.89 2.659-.05 6.218-2.81 7.601" />
    <path d="m1791.33 232.609c-.17 1.619-.36 3.238-.53 4.855-.06.56-.09 1.118-.15 1.677-.01.099-.07.716-.05.503" />
    <path d="m1768.05 232.712c.05 1.584.03 2.583.15 4.168.05.559.01 1.118.07 1.675.02.156.07.751.08.661" />
    <path d="m1768.46 239.45c5.39.446 10.64.866 16.07.773.94-.016 5.14.264 5.88-.197" />
    <path d="m1786.7 235.471c-2.27.206-1.88 3.33.16 2.99 1.89-.316 1.44-3.135-.16-2.99z" />
    <path d="m1786.77 236.995-.06-.029h-.08.05" />
    <path d="m1772.48 235.543c-1.82-.131-2.38 2.638-.6 2.86 2.05.257 2.8-2.703.6-2.86z" />
    <path d="m1772.22 236.851-.03.057.06.029h.06v-.057l-.09-.029-.03.057-.02.058h.05" />
    <path d="m1768.2 237.322c-2.18-.545-3.75 4.001-.23 4.001" />
    <path d="m1791.02 236.991c1.61 0 2.31 2.149 1.42 3.34-.38.512-1.08 1.178-2.2 1.11" />
    <path
      d="m1768.27 241.431c.24 1.469.37 2.904.92 4.271 1.91 4.762 8.32 6.507 12.92 5.485 2.7-.599 5.9-2.307 6.92-5.044.53-1.413.42-1.555 1.21-4.702" />
    <path d="m1778.3 242.511c.65 1.014 2.31.891 2.99.041" />
    <path d="m1777.68 246.429c1.37 1.108 3.95.154 4.76-1.204" />
    <path d="m1759.81 257.057c1.1-4.925 3.84-11.255 8.73-13.699" />
    <path d="m1790.08 243.217c3.11 1.554 4.9 5.502 6.03 8.585.44 1.202.65 2.493.88 3.749.04.243.23 1.636.03 1.436" />
  </g>
</svg>