<svg width="42" height="42" clip-rule="evenodd" fill-rule="evenodd" stroke-linecap="round" stroke-linejoin="round" viewBox="0 0 42 42"
  xmlns="http://www.w3.org/2000/svg">
  <g fill="none" stroke="var(--main-color)" stroke-width="1.1" transform="translate(-1698.34 -213.181)">
    <path d="m1708.48 234.058c.21 7.349 7.31 16.574 15.79 12.198 4.25-2.188 5.08-6.035 6.2-12.769" />
    <path d="m1713.4 231.905c-1.76-.351-2.72 2.824-.69 3.057 2.05.234 3.09-2.578.69-3.057z" />
    <path d="m1726.73 231.992c-1.65-.234-2.08 2.494-.41 2.798 2.25.407 2.83-2.455.41-2.798z" />
    <path d="m1713.18 233.418c-.02.039-.01.036-.01-.013" />
    <path d="m1726.79 233.301c0 .008-.01.017-.01.026" />
    <path d="m1710.79 231.008c.8-1.032 2.4-1.758 3.59-2.228" />
    <path d="m1725.55 228.469c1.26.465 2.18 1.217 3.02 2.351" />
    <path d="m1718.9 237.191c.35.87 1.97 1.429 2.47.135" />
    <path d="m1717.71 241.33c.53 1.253 2.63 1.613 3.91.366" />
    <path d="m1709.14 231.062c-2.06-.213-2.92 2.763-.66 2.996" />
    <path d="m1730.13 230.388c1.96-.045 2.69 2.231.56 3.033" />
    <path d="m1709.27 230.94c-.06-1.621.33-3.811 1.21-5.193" />
    <path
      d="m1710.63 225.544c1.32.776 3.61.371 5.02.269 3.07-.223 6.25-.833 9.33-.284 1.83.327 3.22 1.229 4.27 2.757.26.375.54.734.57 1.445.02.469.31.657.31.657" />
    <path d="m1707.6 231.536c-1.84-2.834.43-9.763 3.13-11.516" />
    <path d="m1710.65 225.498c-.93-1.439-.66-3.474 1.44-6.41" />
    <path d="m1710.83 219.854c5.17-3.617 12.55-2.522 17.39 1.099 5.58 4.182 3.69 8.869 3.33 9.955" />
    <path
      d="m1710.86 241.842c-.1.922-.16 1.932-.76 2.699-.44.557-1.96.871-2.56 1.137-2.39 1.064-4.81 2.167-7.12 3.422-4.37 2.382-8.15 5.977-11.35 9.746-1.22 1.438-3.12 3.394-3.72 5.236" />
    <path
      d="m1728.46 241.975c0 3.676 2.14 3.527 5.14 4.936 2.23 1.042 6.23 2.916 8.1 4.503 4.25 3.601 6.06 6.352 9.03 10.306" />
    <path d="m1709.81 244.79c1.28 3.03 6.47 5.843 6.81 5.843" />
    <path d="m1716.62 250.633c.59-.586.38-1.861 2.36-3.17" />
    <path d="m1720.74 247.492c1.62.877 2.48 3.318 2.48 3.318 1.96-.392 5.86-3.568 6.49-5.656" />
  </g>
</svg>