<svg width="42" height="42" clip-rule="evenodd" fill-rule="evenodd" stroke-linecap="round" stroke-linejoin="round" viewBox="0 0 42 42"
  xmlns="http://www.w3.org/2000/svg">
  <g fill="none" stroke="var(--main-color)" stroke-width="1.1" transform="translate(-1695.68 -150.756)">
    <path d="m1704.9 163.287c-.59-.688-1.45-3.01.24-4.197 2.3-1.613 4.42.168 5.25 1.833" />
    <path d="m1710.46 160.892c4.59-2.296 9.24-1.822 13.63.373" />
    <path d="m1724.3 161.265c.71-3.336 3.65-2.919 4.97-1.678 1.51 1.424.66 2.9.21 4.266" />
    <path d="m1704.9 163.287c-1.11 2.328-2.01 6.301-2.27 7.559-1.03 4.799-3.29 18.445-4.17 23.312" />
    <path d="m1729.48 163.853c3.13 7.827 3.21 16.234 3.85 24.476.12 1.653.34 3.232.34 4.895" />
    <path d="m1707.66 171.685c-1.86 3.42 3.72 4.393 4.13 1.539.3-2.101-2.7-4.177-4.13-1.539z" />
    <path d="m1723.83 170.734c-2.64.246-1.57 5.138 1.18 4.082 2.07-.797 2.12-4.388-1.18-4.082z" />
    <path
      d="m1716.49 176.406c-.14-.142-1.44-1.158-1.32-1.459.1-.248 3.11-.398 3.31-.131.27.359-1.37 2.251-1.99 1.59z" />
    <path d="m1709.49 172.542-.06.062.03.094.03-.063" />
    <path d="m1724.22 172.67-.06.125v.062l.12-.031v-.094l-.06-.031v.062" />
    <path d="m1715.57 179.663c.39.196 1.33.891 2.28.062" />
  </g>
</svg>