<svg width="42" height="42" clip-rule="evenodd" fill-rule="evenodd" stroke-linecap="round" stroke-linejoin="round" viewBox="0 0 42 42"
  xmlns="http://www.w3.org/2000/svg">
  <g fill="none" stroke="var(--main-color)" stroke-width="1.1" transform="translate(-1817.01 -364.84)">
    <path
      d="m1853.41 411.6c.39-5.221.74-12.434.64-16.004-.12-4.138 1.17-12.916-3.76-20.752-.55-.882-1.28-1.654-2.13-2.315-5.99-4.648-18.3-3.829-22.34 2.329-5.61 8.562-3.65 21.092-3.3 28.135.13 2.5.4 4.995.59 7.491.03.413.2 1.378.04 1.746" />
    <path d="m1844.03 388.124c-.01.081-.03.076.02.054" />
    <path d="m1848.51 390.308c-.99 5.732-6.91 8.695-13.52 7.061-7.29-1.802-6.82-9.258-6.82-9.258" />
    <path
      d="m1831.83 376.681c-.06 1.26 1.82 3.644 2.63 4.583 2.79 3.224 7.12 3.777 10.73 5.962 3.02 1.828 2.55 3.238 3.97 2.988" />
    <path d="m1827.7 385.174c1.55-1.294 2.91-2.547 4.18-4.123.47-.584.52-.591.77-1.006.1-.164.41-.511.22-.528" />
    <path d="m1827.63 385.296c-1.88 0-1.75 3.96.54 2.815" />
    <path
      d="m1832.01 386.927c-2.04.288-2.01 3.5.17 3.279.68-.069 1.11-.512 1.29-1.052.35-1.029-.17-2.411-1.46-2.227z" />
    <path
      d="m1842.83 387.069c-1.24 1.641 1.05 3.893 2.44 2.198.52-.642.39-1.745.39-1.745-.98-.749-1.86-1.052-1.86-1.052s-.59.083-.97.599z" />
    <path d="m1831.99 388.532-.01.046.06-.023v-.063l-.04.027v.03" />
    <path d="m1837.64 390.89c-.1.804 1.56.782 1.66-.069" />
    <path
      d="m1837.5 394.296c-.13-.375.11-.69.44-.732.28-.035.6.323.74.294.35-.074 1.29-.897 1.38.283.1 1.135-2.18 1.293-2.56.155z" />
    <path
      d="m1829.03 392.676c-1.57 0-2.84 2.046-3.29 3.333-1.21 3.462-1 7.298-.82 10.901.07 1.5.27 2.989.37 4.485.03.488.03.996.08 1.481.01.061.08.225.08.164" />
    <path d="m1847.85 392.508c2.02-.158 3.08 3.164 3.35 4.611 1.07 5.572.56 11.591-.18 17.149" />
  </g>
</svg>