<svg width="42" height="42" clip-rule="evenodd" fill-rule="evenodd" stroke-linecap="round" stroke-linejoin="round" viewBox="0 0 42 42"
  xmlns="http://www.w3.org/2000/svg">
  <g fill="none" stroke="var(--main-color)" stroke-width="1.1" transform="translate(-1758.68 -420.99)">
    <path d="m1768.36 446.359c.6.618 1.21 1.313 2.09 1.473 2.13.386 3.74-2.258 3.12-4.168" />
    <path d="m1773.65 443.454c-.09-.186.18.278.33.337.29.115.67.01.94-.084.79-.271 1.59-1.21 1.15-2.105" />
    <path d="m1779.98 439.763c-.24.989-.95 1.922-2 2.005-.84.066-1.74-.292-1.75-.234" />
    <path d="m1784.14 441.612c-1.15 1.183-4.16-.214-4.16-1.901" />
    <path d="m1784.29 441.534c-.56 2.324 1.9 3.428 3.56 2.577" />
    <path d="m1790.94 447.443c-.27 1.107-1.98.409-2.41-.156-.82-1.081-.53-1.992-.53-3.202" />
    <path d="m1791.04 447.391c.96 2.958 4.47 2.585 4.47-.521" />
    <path d="m1795.36 446.636c1.72.883 3.9-.845 3.06-2.838-.21-.505-.73-1.009-1.26-1.145-.08-.02-.31-.09-.31.026" />
    <path d="m1764.7 445.849c-2.91 3.395 4.75 4.044 3.57.523" />
    <path d="m1764.57 445.78c-1.96.569-3.46-3.781-1.9-4.132" />
    <path d="m1762.57 441.559c-1.59-2.005-1.03-3.227.93-3.98" />
    <path d="m1763.54 437.545c-.39-.183-.55-.842-.58-1.256-.1-1.319 1.27-1.763 2.32-1.828" />
    <path d="m1765.27 434.387c-.62-1.806.89-4.36 2.87-3.041" />
    <path d="m1768.31 431.354c0 .004-.2-.632-.22-.898-.04-.691.34-1.496.76-2.004 1.03-1.244 3.19-1.623 4.17-.097" />
    <path d="m1772.97 428.392c.72-3.598 5.67-3.612 7.06-.602" />
    <path d="m1779.92 427.837c1.12-2.753 5.36-2.231 5.9.641" />
    <path d="m1785.75 428.689c2.16-1.862 6.11 1.157 5.44 3.612" />
    <path d="m1791.2 432.355c1.69-.978 3.24.147 3.78 1.822.14.442-.12.864-.04 1.278" />
    <path d="m1794.76 435.727c2.14-.174 4.03 2.471 3.32 4.582-.31.94-.92 1.616-1.47 2.396" />
    <path d="m1778.94 450.755c.44 1.003 1.82.725 2.14-.157" />
    <path d="m1766.46 448.86c-1.47 1.13-.34 3.767 1.67 2.737" />
    <path d="m1790.29 451.43c1.18 1.212 2.91-.591 2.25-1.938" />
    <path d="m1779.34 448.439c.1.481 1.27.567 1.27-.003" />
    <path d="m1768.13 451.597c4.68 6.093 18.51 7.975 22.16-.167" />
    <path d="m1779.74 456.913c0 .203.26.246.37.362 1.03 1.049 1.86 1.742 3.38 1.915 2.02.23 5.2-3.296 5.2-5.24" />
    <path d="m1770.55 454.293c.12.71.7 1.478 1.11 2.041 2.12 2.861 5.59 3.886 7.87.545" />
    <path d="m1770.59 453.948c-.72.296-1.35 1.254-1.79 1.869-2.51 3.475-2.58 7.868-2.58 12.046" />
    <path d="m1788.81 453.967c3.66 3.754 3.04 10.379 3.04 15.21" />
    <path d="m1772.92 448.495-.04.014v.053l.03.021.02-.034-.05-.005-.02.051" />
    <path
      d="m1770.9 447.992c-.93 1.132.78 2.926 1.97 2.766 2.13-.284 3.02-2.673 1.49-3.871-.18-.142-.47-.386-.71-.41" />
    <path d="m1786.46 447.889-.03.038-.01.06.09-.029.01-.06-.04-.026-.03.038" />
    <path d="m1788.09 446.445c-2-1.633-4.4.928-3.54 2.729.88 1.857 5.1.757 4.38-1.541" />
  </g>
</svg>