<svg  width="42" height="42" clip-rule="evenodd" fill-rule="evenodd" stroke-linecap="round" stroke-linejoin="round" viewBox="0 0 42 42"
  xmlns="http://www.w3.org/2000/svg">
  <g fill="none" stroke="var(--main-color)" stroke-width="1.1" transform="translate(-1699.16 -423.373)">
    <path d="m1708.81 447.994c1 .349 2.26-.375 2.11-1.513" />
    <path d="m1711 446.41c.93.183 2.09-.185 2.15-1.244 0-.124.04-.483-.1-.533" />
    <path d="m1712.95 444.585c.86.665 2.13-.423 1.53-1.317" />
    <path d="m1714.65 443.185c.41.081 1.44-.146 1.35-.779" />
    <path d="m1713.77 437.481c-1.07 1.378 0 4.281 2 3.319" />
    <path d="m1715.98 440.803c-1.38 1.787 2.02 2.775 3.31 1.909" />
    <path d="m1719.35 442.734c-.71 1.611 1.56 2.531 2.55 1.248" />
    <path d="m1722.15 444.041c-.79 1.812 1.55 2.358 2.64 1.632" />
    <path d="m1724.99 445.616c.34 2.61 1.59 2.645 3.7 2.374" />
    <path d="m1728.7 448.08c-1.12.751-.36 1.872.71 1.999" />
    <path d="m1729.62 450.052c.4-.12.24-.046.49-.184" />
    <path d="m1730.2 449.857c-.61.794.62 1.951 1.32 1.043" />
    <path d="m1731.55 450.906c.87-.923 2.24.323 1.32 1.001" />
    <path d="m1708.89 448.01c-1.01-.254-2.42.246-1.74 1.588" />
    <path d="m1719.16 451.766c.15.449 1.21.414 1.28-.086" />
    <path d="m1719.04 454.175c.39.388 1.16.509 1.53.028" />
    <path
      d="m1728.41 449.581c-1.25 5.304-6.72 9.186-11.17 7.664-1.74-.596-3.27-1.195-5.07-3.526-1.79-2.331-2.1-5.797-2.1-5.797" />
    <path d="m1704.35 464.879c1.14-4.504 4.07-8.483 7.82-11.16" />
    <path d="m1726.49 453.902c3.7 1.571 6.28 5.728 7.11 9.575.3 1.384.29 2.873.68 4.224" />
    <path d="m1701.59 451.892c-.54-.812.04-2.008.69-2.546" />
    <path d="m1702.41 449.208c-.42 0-1.01-1.569-.75-1.995.22-.377.65-.387 1.03-.482" />
    <path d="m1702.86 446.663c-.82 0-.9-1.991-.48-2.512.29-.359.72-.25 1.1-.378" />
    <path d="m1703.62 443.566c-1.57 0-.57-2.855 1.07-2.855" />
    <path d="m1704.83 440.603c-1.32.662-1.26-3.531 1.14-2.328" />
    <path d="m1706.04 438.185c-1.46-1.757 0-3.55 1.95-3.828" />
    <path d="m1708.01 434.38c-2.05-.41.06-2.799 1.52-2.799" />
    <path d="m1709.53 431.469c0-.994 1.01-2.257 1.97-1.298" />
    <path d="m1711.57 430.372c.23-.465.18-.993.58-1.432 1.06-1.16 3.47-1.032 4.23.492" />
    <path d="m1716.45 429.477c-.13-.39.69-1.198.96-1.455 1.19-1.101 2.35-.277 3.25.627" />
    <path d="m1720.73 428.767c.99-1.597 3.7-1.511 3.78.613" />
    <path d="m1724.48 429.558c.31-.583.9-.808 1.51-.882 1.97-.238 2.1.942 2.37 2.428" />
    <path d="m1728.35 431.209c.2-.292.82-.395 1.16-.403 2.07-.048 1.87 1.154 2.13 2.653" />
    <path d="m1731.72 433.505c.87-.503 1.73.22 1.12 1.135" />
    <path d="m1732.89 434.72c1-1.511 4.43 1.793 2.05 2.932" />
    <path d="m1734.79 437.701c2.2-.421 1.93 2.716 1.77 3.864" />
    <path d="m1736.58 441.61c.69-.526 1.99.895.69 1.338" />
    <path d="m1737.16 443.02c2.41.322 2.1 3.274.31 3.035" />
    <path d="m1737.28 446.161c1.02-.44 1.68 1.589 1.37 2.324-.17.419-.51.624-.86.89" />
    <path d="m1737.79 449.532c1.79 0 2.03 2.291 1.46 3.431" />
    <path d="m1739.13 453.051c1.03 0 1.07 2.152.03 2.152" />
    <path d="m1739.16 455.203c1.05-.703 2.56 1.797.2 1.797" />
    <path d="m1739.26 457.152c1.52.38 1.52 2.496 1.24 3.747-.12.554-.41.975-.84 1.341-.1.087-.52.348-.5.304" />
    <path d="m1739.13 462.702c.52-.257.83 1.216.13 1.565" />
    <path d="m1739.29 464.427c1.51 0 1.31 1.35 1.12 2.332" />
    <path d="m1740.44 466.759c.81-.405 1.31.266 1.44.926" />
    <path d="m1701.63 452.13c-1.48 0-3.29 4.319-1.05 4.346" />
    <path d="m1700.58 456.476c-1.6 0-2.71 3.622-.72 3.622" />
    <path d="m1699.97 460.279c-.56-.278-1.1 1.206-.04 1.738" />
    <path d="m1700.15 462.199c-2.35 0-1.81 3.622-1.16 4.925" />
    <path d="m1713.57 448.007c-1.6.574-.21 4.037 1.73 2.666 1.43-1.012.56-3.486-1.73-2.666z" />
    <path d="m1725.55 447.906c-1.91-1.567-3.95 1.047-2.21 2.496 1.72 1.434 3.9-1.111 2.21-2.496z" />
    <path d="m1714.32 449.351.06.038-.02-.065-.01.092" />
    <path d="m1724.38 449.087-.03.067.03-.135-.03.068" />
  </g>
</svg>