<svg width="42" height="42" clip-rule="evenodd" fill-rule="evenodd" stroke-linecap="round" stroke-linejoin="round"
  viewBox="0 0 42 42" xmlns="http://www.w3.org/2000/svg">
  <g fill="none" stroke="var(--main-color)" stroke-width="1.1" transform="translate(-1831.13 -419.694)">
    <path d="m1840.15 449.945c-.17-5.177-.16-10.375-.19-15.567 0-1.618.05-4.126-.02-6.675" />
    <path
      d="m1839.93 427.618c1.43-.006 3.79-.162 4.76-.208 2.44-.115 3.12-.119 5.56-.131 4.73-.022 9.41.327 14.12.512" />
    <path d="m1864.41 427.893c.24 4.773.35 8.264.37 8.647.02.382.39 9.245.39 13.893" />
    <path d="m1840.23 450.08c.19-.279 2.39-2.146 2.65-2.174" />
    <path d="m1844.56 450.549c-.62-.809-1.14-1.772-1.62-2.672" />
    <path d="m1846.93 448.018c-.82.776-1.43 1.769-2.24 2.537" />
    <path d="m1849.54 450.887c-.83-1.023-2.46-2.808-2.46-2.808" />
    <path d="m1852.32 448.269c-.81.737-2.01 1.737-2.78 2.618" />
    <path d="m1854.61 450.809c-.74-.821-1.48-1.683-2.12-2.584" />
    <path d="m1857.08 448.121c-.12.131-.06.065-.15.167" />
    <path d="m1856.81 448.416c-.74.773-1.46 1.593-2.14 2.415" />
    <path d="m1859.18 450.827c-.69-.859-1.02-1.511-2-2.741" />
    <path d="m1862.1 448.074c-.82.983-1.85 1.94-2.75 2.841" />
    <path d="m1862.1 448.074c.74.649 2.71 2.262 3.02 2.417" />
    <path d="m1839.83 441.353c-2.06 0-2.67 3.193-.11 3.193" />
    <path d="m1865.19 442.003c1.54-.097 2.34 1.325 1.4 2.522-.39.495-.84.62-1.36.866" />
    <path d="m1845.63 440.9c-2.54.676-2.08 4.047.43 3.796 2.34-.235 1.84-4.403-.43-3.796z" />
    <path d="m1859.58 440.551c-3.09.24-2.42 4.305-.06 3.893 2.66-.461 1.95-4.039.06-3.893z" />
    <path d="m1845.83 442.758v.027" />
    <path d="m1859.47 442.466c.04-.044.03-.052.03 0" />
    <path
      d="m1841.89 449.07c.9 2.176 2.24 4.015 3.5 5.131 3.27 2.887 7.31 3.083 11.51 1.453 1.75-.681 2.92-1.659 3.81-2.779.92-1.15 1.55-2.451 2.23-3.738" />
    <path d="m1828.75 471.501c.54-2.357 2.32-6.49 3.23-8.152 2.47-4.491 6.57-9.029 11.23-11.358" />
    <path d="m1861.85 451.183c6.28 2.104 12.57 9.988 15 13.511 1 1.454 1.64 3.272 2.68 4.655" />
    <path d="m1851.62 453.457c.16-.332.99-.719 1.37-.674" />
  </g>
</svg>